G04 EAGLE Gerber RS-274X export*
G75*
%MOMM*%
%FSLAX34Y34*%
%LPD*%
%INTop Copper*%
%IPPOS*%
%AMOC8*
5,1,8,0,0,1.08239X$1,22.5*%
G01*
%ADD10C,1.508000*%
%ADD11C,2.100000*%
%ADD12R,1.815000X1.815000*%
%ADD13C,1.815000*%
%ADD14R,1.300000X1.500000*%
%ADD15C,1.508000*%
%ADD16R,1.676400X1.676400*%
%ADD17C,1.676400*%
%ADD18C,4.016000*%
%ADD19C,4.445000*%
%ADD20C,0.381000*%


D10*
X253600Y279400D03*
X228600Y279400D03*
X203600Y279400D03*
X1168000Y279400D03*
X1143000Y279400D03*
X1118000Y279400D03*
D11*
X1281700Y507600D03*
X1281700Y457600D03*
X1156700Y457600D03*
X1156700Y507600D03*
X214900Y863200D03*
X214900Y813200D03*
X89900Y813200D03*
X89900Y863200D03*
D12*
X1206500Y660400D03*
D13*
X1231900Y660400D03*
D12*
X1206500Y787400D03*
D13*
X1231900Y787400D03*
D12*
X1206500Y914400D03*
D13*
X1231900Y914400D03*
D14*
X1304900Y660400D03*
X1285900Y660400D03*
X1304900Y787400D03*
X1285900Y787400D03*
X1304900Y914400D03*
X1285900Y914400D03*
X66700Y660400D03*
X85700Y660400D03*
X1184300Y355600D03*
X1203300Y355600D03*
D15*
X698500Y83740D02*
X698500Y68660D01*
X673100Y68660D02*
X673100Y83740D01*
X1003300Y83740D02*
X1003300Y68660D01*
X1028700Y68660D02*
X1028700Y83740D01*
X1054100Y83740D02*
X1054100Y68660D01*
X1079500Y68660D02*
X1079500Y83740D01*
X800100Y932260D02*
X800100Y947340D01*
X774700Y947340D02*
X774700Y932260D01*
X749300Y932260D02*
X749300Y947340D01*
X723900Y947340D02*
X723900Y932260D01*
X698500Y932260D02*
X698500Y947340D01*
X673100Y947340D02*
X673100Y932260D01*
X647700Y932260D02*
X647700Y947340D01*
X622300Y947340D02*
X622300Y932260D01*
D16*
X1066800Y342900D03*
D17*
X1066800Y368300D03*
X1066800Y393700D03*
X1066800Y419100D03*
X1066800Y444500D03*
X1066800Y469900D03*
X1066800Y495300D03*
X1066800Y520700D03*
X1066800Y546100D03*
X1066800Y571500D03*
X1066800Y596900D03*
X1066800Y622300D03*
X1066800Y647700D03*
X1066800Y673100D03*
X1066800Y698500D03*
X1066800Y723900D03*
X1066800Y749300D03*
X1066800Y774700D03*
X1066800Y800100D03*
X1066800Y825500D03*
D16*
X304800Y342900D03*
D17*
X304800Y368300D03*
X304800Y393700D03*
X304800Y419100D03*
X304800Y444500D03*
X304800Y469900D03*
X304800Y495300D03*
X304800Y520700D03*
X304800Y546100D03*
X304800Y571500D03*
X304800Y596900D03*
X304800Y622300D03*
X304800Y647700D03*
X304800Y673100D03*
X304800Y698500D03*
X304800Y723900D03*
X304800Y749300D03*
X304800Y774700D03*
X304800Y800100D03*
X304800Y825500D03*
D18*
X304800Y869950D03*
X304800Y298450D03*
X1066800Y869950D03*
X1066800Y298450D03*
D15*
X431800Y932260D02*
X431800Y947340D01*
X457200Y947340D02*
X457200Y932260D01*
X482600Y932260D02*
X482600Y947340D01*
D19*
X50800Y50800D03*
X1320800Y50800D03*
X1320800Y965200D03*
X50800Y965200D03*
D14*
X66700Y533400D03*
X85700Y533400D03*
D20*
X274035Y233965D02*
X288775Y233965D01*
X446540Y76200D02*
X673100Y76200D01*
X446540Y76200D02*
X288775Y233965D01*
X274035Y233965D02*
X228600Y279400D01*
X698500Y76200D02*
X939800Y76200D01*
X990600Y25400D01*
X1092200Y25400D01*
X1219200Y152400D01*
X1219200Y228600D01*
X1181655Y266145D01*
X1149255Y279400D02*
X1143000Y279400D01*
X1162510Y266145D02*
X1181655Y266145D01*
X1162510Y266145D02*
X1149255Y279400D01*
X1184300Y430000D02*
X1156700Y457600D01*
X1184300Y430000D02*
X1184300Y355600D01*
X1112510Y292655D02*
X1104745Y284890D01*
X1104745Y273910D01*
X1121355Y292655D02*
X1184300Y355600D01*
X1121355Y292655D02*
X1112510Y292655D01*
X1117565Y261090D02*
X1117565Y114265D01*
X1079500Y76200D01*
X1117565Y261090D02*
X1104745Y273910D01*
X469900Y469900D02*
X304800Y469900D01*
X723900Y723900D02*
X723900Y939800D01*
X723900Y723900D02*
X469900Y469900D01*
X469900Y495300D02*
X304800Y495300D01*
X711200Y926215D02*
X710645Y926770D01*
X710645Y927655D01*
X698500Y939800D01*
X711200Y736600D02*
X469900Y495300D01*
X711200Y736600D02*
X711200Y926215D01*
X279400Y393700D02*
X304800Y368300D01*
X298961Y839597D02*
X310639Y839597D01*
X312036Y838200D01*
X445055Y926770D02*
X445055Y927655D01*
X457200Y939800D01*
X445055Y926770D02*
X356485Y838200D01*
X279400Y820036D02*
X279400Y393700D01*
X279400Y820036D02*
X298961Y839597D01*
X312036Y838200D02*
X356485Y838200D01*
X304800Y368300D02*
X1066800Y368300D01*
X469900Y393700D02*
X304800Y393700D01*
X787400Y926215D02*
X787955Y926770D01*
X787955Y927655D01*
X800100Y939800D01*
X787400Y711200D02*
X469900Y393700D01*
X787400Y711200D02*
X787400Y926215D01*
X469900Y419100D02*
X304800Y419100D01*
X762000Y926215D02*
X762555Y926770D01*
X762555Y927655D01*
X774700Y939800D01*
X762000Y711200D02*
X469900Y419100D01*
X762000Y711200D02*
X762000Y926215D01*
X469900Y444500D02*
X304800Y444500D01*
X736600Y926215D02*
X737155Y926770D01*
X737155Y927655D01*
X749300Y939800D01*
X736600Y711200D02*
X469900Y444500D01*
X736600Y711200D02*
X736600Y926215D01*
X469900Y520700D02*
X304800Y520700D01*
X660400Y926215D02*
X660955Y926770D01*
X660955Y927655D01*
X673100Y939800D01*
X660400Y711200D02*
X469900Y520700D01*
X660400Y711200D02*
X660400Y926215D01*
X469900Y571500D02*
X304800Y571500D01*
X635000Y926215D02*
X634445Y926770D01*
X634445Y927655D01*
X622300Y939800D01*
X635000Y736600D02*
X469900Y571500D01*
X635000Y736600D02*
X635000Y926215D01*
X469900Y546100D02*
X304800Y546100D01*
X647700Y723900D02*
X647700Y939800D01*
X647700Y723900D02*
X469900Y546100D01*
X66700Y660400D02*
X66700Y790000D01*
X89900Y813200D01*
X50800Y852300D01*
X50800Y914400D01*
X101600Y965200D01*
X406400Y965200D01*
X431800Y939800D01*
M02*
