G04 EAGLE Gerber RS-274X export*
G75*
%MOMM*%
%FSLAX34Y34*%
%LPD*%
%INSoldermask Top*%
%IPPOS*%
%AMOC8*
5,1,8,0,0,1.08239X$1,22.5*%
G01*
%ADD10C,1.711200*%
%ADD11C,2.703200*%
%ADD12C,2.303200*%
%ADD13R,2.018200X2.018200*%
%ADD14C,2.018200*%
%ADD15R,1.503200X1.703200*%
%ADD16C,1.711200*%
%ADD17R,1.879600X1.879600*%
%ADD18C,1.879600*%
%ADD19C,4.219200*%
%ADD20C,4.648200*%


D10*
X253600Y279400D03*
X228600Y279400D03*
X203600Y279400D03*
D11*
X278600Y209400D03*
X178600Y209400D03*
D10*
X1168000Y279400D03*
X1143000Y279400D03*
X1118000Y279400D03*
D11*
X1193000Y209400D03*
X1093000Y209400D03*
D12*
X1281700Y507600D03*
X1281700Y457600D03*
X1156700Y457600D03*
X1156700Y507600D03*
X214900Y863200D03*
X214900Y813200D03*
X89900Y813200D03*
X89900Y863200D03*
D13*
X1206500Y660400D03*
D14*
X1231900Y660400D03*
D13*
X1206500Y787400D03*
D14*
X1231900Y787400D03*
D13*
X1206500Y914400D03*
D14*
X1231900Y914400D03*
D15*
X1304900Y660400D03*
X1285900Y660400D03*
X1304900Y787400D03*
X1285900Y787400D03*
X1304900Y914400D03*
X1285900Y914400D03*
X66700Y660400D03*
X85700Y660400D03*
X1184300Y355600D03*
X1203300Y355600D03*
D16*
X698500Y83740D02*
X698500Y68660D01*
X673100Y68660D02*
X673100Y83740D01*
X1003300Y83740D02*
X1003300Y68660D01*
X1028700Y68660D02*
X1028700Y83740D01*
X1054100Y83740D02*
X1054100Y68660D01*
X1079500Y68660D02*
X1079500Y83740D01*
X800100Y932260D02*
X800100Y947340D01*
X774700Y947340D02*
X774700Y932260D01*
X749300Y932260D02*
X749300Y947340D01*
X723900Y947340D02*
X723900Y932260D01*
X698500Y932260D02*
X698500Y947340D01*
X673100Y947340D02*
X673100Y932260D01*
X647700Y932260D02*
X647700Y947340D01*
X622300Y947340D02*
X622300Y932260D01*
D17*
X1066800Y342900D03*
D18*
X1066800Y368300D03*
X1066800Y393700D03*
X1066800Y419100D03*
X1066800Y444500D03*
X1066800Y469900D03*
X1066800Y495300D03*
X1066800Y520700D03*
X1066800Y546100D03*
X1066800Y571500D03*
X1066800Y596900D03*
X1066800Y622300D03*
X1066800Y647700D03*
X1066800Y673100D03*
X1066800Y698500D03*
X1066800Y723900D03*
X1066800Y749300D03*
X1066800Y774700D03*
X1066800Y800100D03*
X1066800Y825500D03*
D17*
X304800Y342900D03*
D18*
X304800Y368300D03*
X304800Y393700D03*
X304800Y419100D03*
X304800Y444500D03*
X304800Y469900D03*
X304800Y495300D03*
X304800Y520700D03*
X304800Y546100D03*
X304800Y571500D03*
X304800Y596900D03*
X304800Y622300D03*
X304800Y647700D03*
X304800Y673100D03*
X304800Y698500D03*
X304800Y723900D03*
X304800Y749300D03*
X304800Y774700D03*
X304800Y800100D03*
X304800Y825500D03*
D19*
X304800Y869950D03*
X304800Y298450D03*
X1066800Y869950D03*
X1066800Y298450D03*
D16*
X431800Y932260D02*
X431800Y947340D01*
X457200Y947340D02*
X457200Y932260D01*
X482600Y932260D02*
X482600Y947340D01*
D20*
X50800Y50800D03*
X1320800Y50800D03*
X1320800Y965200D03*
X50800Y965200D03*
D15*
X66700Y533400D03*
X85700Y533400D03*
M02*
