G04 EAGLE Gerber RS-274X export*
G75*
%MOMM*%
%FSLAX34Y34*%
%LPD*%
%INTop Copper*%
%IPPOS*%
%AMOC8*
5,1,8,0,0,1.08239X$1,22.5*%
G01*
%ADD10C,4.445000*%
%ADD11R,1.143000X1.270000*%
%ADD12R,1.524000X1.524000*%
%ADD13P,1.649562X8X202.500000*%
%ADD14R,1.100000X1.000000*%
%ADD15C,1.508000*%
%ADD16C,1.397000*%
%ADD17C,1.905000*%
%ADD18C,0.254000*%


D10*
X1320800Y965200D03*
X50800Y965200D03*
X50800Y50800D03*
X1320800Y50800D03*
D11*
X1007110Y901700D03*
X1024890Y901700D03*
D12*
X1274400Y663200D03*
D13*
X1274400Y637800D03*
X1249000Y663200D03*
X1249000Y637800D03*
X1223600Y663200D03*
X1223600Y637800D03*
X1198200Y663200D03*
X1198200Y637800D03*
X1172800Y663200D03*
X1172800Y637800D03*
X1147400Y663200D03*
X1147400Y637800D03*
X1122000Y663200D03*
X1122000Y637800D03*
X1096600Y663200D03*
X1096600Y637800D03*
X1071200Y663200D03*
X1071200Y637800D03*
X1045800Y663200D03*
X1045800Y637800D03*
X1020400Y663200D03*
X1020400Y637800D03*
X995000Y663200D03*
X995000Y637800D03*
X969600Y663200D03*
X969600Y637800D03*
X944200Y663200D03*
X944200Y637800D03*
X918800Y663200D03*
X918800Y637800D03*
X893400Y663200D03*
X893400Y637800D03*
X868000Y663200D03*
X868000Y637800D03*
X842600Y663200D03*
X842600Y637800D03*
D12*
X1274400Y409200D03*
D13*
X1274400Y383800D03*
X1249000Y409200D03*
X1249000Y383800D03*
X1223600Y409200D03*
X1223600Y383800D03*
X1198200Y409200D03*
X1198200Y383800D03*
X1172800Y409200D03*
X1172800Y383800D03*
X1147400Y409200D03*
X1147400Y383800D03*
X1122000Y409200D03*
X1122000Y383800D03*
X1096600Y409200D03*
X1096600Y383800D03*
X1071200Y409200D03*
X1071200Y383800D03*
X1045800Y409200D03*
X1045800Y383800D03*
X1020400Y409200D03*
X1020400Y383800D03*
X995000Y409200D03*
X995000Y383800D03*
X969600Y409200D03*
X969600Y383800D03*
X944200Y409200D03*
X944200Y383800D03*
X918800Y409200D03*
X918800Y383800D03*
X893400Y409200D03*
X893400Y383800D03*
X868000Y409200D03*
X868000Y383800D03*
X842600Y409200D03*
X842600Y383800D03*
D14*
X1126100Y889000D03*
X1109100Y889000D03*
X1126100Y939800D03*
X1109100Y939800D03*
D15*
X673100Y83740D02*
X673100Y68660D01*
X698500Y68660D02*
X698500Y83740D01*
X876300Y83740D02*
X876300Y68660D01*
X901700Y68660D02*
X901700Y83740D01*
X927100Y83740D02*
X927100Y68660D01*
X952500Y68660D02*
X952500Y83740D01*
X469900Y932260D02*
X469900Y947340D01*
X495300Y947340D02*
X495300Y932260D01*
X520700Y932260D02*
X520700Y947340D01*
X546100Y947340D02*
X546100Y932260D01*
X571500Y932260D02*
X571500Y947340D01*
X596900Y947340D02*
X596900Y932260D01*
X622300Y932260D02*
X622300Y947340D01*
X647700Y947340D02*
X647700Y932260D01*
X787400Y932260D02*
X787400Y947340D01*
X812800Y947340D02*
X812800Y932260D01*
X838200Y932260D02*
X838200Y947340D01*
D16*
X1295400Y304800D03*
X1295400Y279908D03*
X1295400Y259842D03*
X1295400Y234696D03*
D17*
X1291971Y204216D02*
X1311021Y204216D01*
X1350264Y260223D02*
X1350264Y279273D01*
X1311021Y335534D02*
X1291971Y335534D01*
D18*
X469900Y901700D02*
X469900Y939800D01*
X939800Y431800D02*
X1193800Y431800D01*
X1212170Y413430D01*
X1212170Y379066D01*
X1253735Y372370D02*
X1260430Y379066D01*
X1260430Y395230D02*
X1274400Y409200D01*
X1260430Y395230D02*
X1260430Y379066D01*
X1253735Y372370D02*
X1218866Y372370D01*
X939800Y431800D02*
X469900Y901700D01*
X1212170Y379066D02*
X1218866Y372370D01*
X495300Y901700D02*
X495300Y939800D01*
X939800Y457200D02*
X1219200Y457200D01*
X1249000Y393036D02*
X1249000Y383800D01*
X1249000Y393036D02*
X1237570Y404466D01*
X1237570Y438830D02*
X1219200Y457200D01*
X1237570Y438830D02*
X1237570Y404466D01*
X939800Y457200D02*
X495300Y901700D01*
X520700Y901700D02*
X520700Y939800D01*
X1249000Y452800D02*
X1249000Y409200D01*
X939800Y482600D02*
X520700Y901700D01*
X939800Y482600D02*
X1219200Y482600D01*
X1249000Y452800D01*
X571500Y914400D02*
X546100Y939800D01*
X571500Y914400D02*
X609600Y914400D01*
X617220Y906780D01*
X617220Y899596D01*
X690880Y833120D02*
X711200Y812800D01*
X683696Y833120D02*
X617220Y899596D01*
X683696Y833120D02*
X690880Y833120D01*
X711200Y812800D02*
X939800Y812800D01*
X1034370Y658466D02*
X1036918Y655918D01*
X1034370Y658466D02*
X1034370Y718230D01*
X1034370Y642535D02*
X1034370Y633066D01*
X1041066Y626370D01*
X1036918Y645082D02*
X1036918Y655918D01*
X1036918Y645082D02*
X1034370Y642535D01*
X1041066Y626370D02*
X1050030Y626370D01*
X1117600Y558800D02*
X1168400Y558800D01*
X1223600Y614000D01*
X1223600Y637800D01*
X1034370Y718230D02*
X939800Y812800D01*
X1050030Y626370D02*
X1117600Y558800D01*
X622300Y990600D02*
X571500Y939800D01*
X622300Y990600D02*
X635000Y990600D01*
X756920Y868680D01*
X960120Y868680D01*
X1074240Y754561D01*
X1109726Y666851D01*
X1110570Y666007D01*
X1110570Y658466D01*
X1117266Y651770D02*
X1126735Y651770D01*
X1127290Y652326D01*
X1134926Y652326D01*
X1147400Y639851D01*
X1147400Y637800D01*
X1117266Y651770D02*
X1110570Y658466D01*
X622300Y965200D02*
X596900Y939800D01*
X660320Y939880D02*
X660320Y952567D01*
X660320Y939880D02*
X736600Y863600D01*
X660320Y952567D02*
X647687Y965200D01*
X736600Y863600D02*
X939800Y863600D01*
X647687Y965200D02*
X622300Y965200D01*
X939800Y863600D02*
X1066800Y736600D01*
X1066800Y683765D01*
X1083900Y666665D01*
X1083900Y632539D01*
X1132239Y584200D01*
X1143000Y584200D01*
X1172800Y614000D02*
X1172800Y637800D01*
X1172800Y614000D02*
X1143000Y584200D01*
X622300Y901700D02*
X622300Y939800D01*
X622300Y901700D02*
X685800Y838200D01*
X939800Y838200D01*
X1041400Y736600D01*
X1041400Y711200D01*
X1058500Y694100D01*
X1058500Y632539D01*
X1117600Y573439D01*
X1157639Y573439D01*
X1198200Y614000D02*
X1198200Y637800D01*
X1198200Y614000D02*
X1157639Y573439D01*
X1270000Y285242D02*
X1295400Y259842D01*
X1270000Y334442D02*
X1315720Y380162D01*
X1270000Y711200D02*
X1168400Y711200D01*
X1143000Y685800D01*
X1143000Y667600D01*
X1147400Y663200D01*
X1270000Y334442D02*
X1270000Y285242D01*
X1315720Y380162D02*
X1315720Y665480D01*
X1270000Y711200D01*
X1306195Y264313D02*
X1306195Y255371D01*
X1299871Y249047D01*
X1295400Y275108D02*
X1295400Y279908D01*
X1295400Y275108D02*
X1306195Y264313D01*
X1290929Y249047D02*
X1264920Y275056D01*
X1267896Y706120D02*
X1188720Y706120D01*
X1168400Y685800D01*
X1168400Y667600D01*
X1172800Y663200D01*
X1290929Y249047D02*
X1299871Y249047D01*
X1264920Y275056D02*
X1264920Y350520D01*
X1295400Y381000D01*
X1295400Y678616D01*
X1267896Y706120D01*
X1295400Y304800D02*
X1320800Y304800D01*
X1346200Y330200D01*
X1346200Y355600D01*
X1320800Y381000D01*
X1320800Y685800D02*
X1270000Y736600D01*
X1168400Y736600D01*
X1135970Y704170D01*
X1135970Y658466D01*
X1142666Y651770D02*
X1212170Y651770D01*
X1223600Y663200D01*
X1320800Y685800D02*
X1320800Y381000D01*
X1142666Y651770D02*
X1135970Y658466D01*
M02*
