G04 EAGLE Gerber RS-274X export*
G75*
%MOMM*%
%FSLAX34Y34*%
%LPD*%
%INBottom Copper*%
%IPPOS*%
%AMOC8*
5,1,8,0,0,1.08239X$1,22.5*%
G01*
%ADD10C,4.445000*%
%ADD11R,1.524000X1.524000*%
%ADD12P,1.649562X8X202.500000*%
%ADD13C,1.508000*%
%ADD14C,1.397000*%
%ADD15C,1.905000*%
%ADD16C,0.254000*%


D10*
X1320800Y965200D03*
X50800Y965200D03*
X50800Y50800D03*
X1320800Y50800D03*
D11*
X1274400Y663200D03*
D12*
X1274400Y637800D03*
X1249000Y663200D03*
X1249000Y637800D03*
X1223600Y663200D03*
X1223600Y637800D03*
X1198200Y663200D03*
X1198200Y637800D03*
X1172800Y663200D03*
X1172800Y637800D03*
X1147400Y663200D03*
X1147400Y637800D03*
X1122000Y663200D03*
X1122000Y637800D03*
X1096600Y663200D03*
X1096600Y637800D03*
X1071200Y663200D03*
X1071200Y637800D03*
X1045800Y663200D03*
X1045800Y637800D03*
X1020400Y663200D03*
X1020400Y637800D03*
X995000Y663200D03*
X995000Y637800D03*
X969600Y663200D03*
X969600Y637800D03*
X944200Y663200D03*
X944200Y637800D03*
X918800Y663200D03*
X918800Y637800D03*
X893400Y663200D03*
X893400Y637800D03*
X868000Y663200D03*
X868000Y637800D03*
X842600Y663200D03*
X842600Y637800D03*
D11*
X1274400Y409200D03*
D12*
X1274400Y383800D03*
X1249000Y409200D03*
X1249000Y383800D03*
X1223600Y409200D03*
X1223600Y383800D03*
X1198200Y409200D03*
X1198200Y383800D03*
X1172800Y409200D03*
X1172800Y383800D03*
X1147400Y409200D03*
X1147400Y383800D03*
X1122000Y409200D03*
X1122000Y383800D03*
X1096600Y409200D03*
X1096600Y383800D03*
X1071200Y409200D03*
X1071200Y383800D03*
X1045800Y409200D03*
X1045800Y383800D03*
X1020400Y409200D03*
X1020400Y383800D03*
X995000Y409200D03*
X995000Y383800D03*
X969600Y409200D03*
X969600Y383800D03*
X944200Y409200D03*
X944200Y383800D03*
X918800Y409200D03*
X918800Y383800D03*
X893400Y409200D03*
X893400Y383800D03*
X868000Y409200D03*
X868000Y383800D03*
X842600Y409200D03*
X842600Y383800D03*
D13*
X673100Y83740D02*
X673100Y68660D01*
X698500Y68660D02*
X698500Y83740D01*
X876300Y83740D02*
X876300Y68660D01*
X901700Y68660D02*
X901700Y83740D01*
X927100Y83740D02*
X927100Y68660D01*
X952500Y68660D02*
X952500Y83740D01*
X469900Y932260D02*
X469900Y947340D01*
X495300Y947340D02*
X495300Y932260D01*
X520700Y932260D02*
X520700Y947340D01*
X546100Y947340D02*
X546100Y932260D01*
X571500Y932260D02*
X571500Y947340D01*
X596900Y947340D02*
X596900Y932260D01*
X622300Y932260D02*
X622300Y947340D01*
X647700Y947340D02*
X647700Y932260D01*
X787400Y932260D02*
X787400Y947340D01*
X812800Y947340D02*
X812800Y932260D01*
X838200Y932260D02*
X838200Y947340D01*
D14*
X1295400Y304800D03*
X1295400Y279908D03*
X1295400Y259842D03*
X1295400Y234696D03*
D15*
X1291971Y204216D02*
X1311021Y204216D01*
X1350264Y260223D02*
X1350264Y279273D01*
X1311021Y335534D02*
X1291971Y335534D01*
D16*
X983570Y642535D02*
X990266Y649230D01*
X1006430Y649230D02*
X1020400Y663200D01*
X914400Y372036D02*
X914400Y254000D01*
X990266Y649230D02*
X1006430Y649230D01*
X983570Y642535D02*
X983570Y626370D01*
X907370Y379066D02*
X914400Y372036D01*
X907370Y550170D02*
X983570Y626370D01*
X907370Y550170D02*
X907370Y379066D01*
X914400Y254000D02*
X863600Y203200D01*
X787400Y203200D01*
X673100Y88900D01*
X673100Y76200D01*
X698500Y76200D02*
X800100Y177800D01*
X863600Y177800D01*
X932770Y246970D01*
X932770Y388535D02*
X935318Y391082D01*
X935318Y401918D01*
X932770Y388535D02*
X932770Y246970D01*
X935318Y401918D02*
X932770Y404466D01*
X1007700Y643061D02*
X1015139Y650500D01*
X1033100Y650500D02*
X1045800Y663200D01*
X1007700Y643061D02*
X1007700Y625100D01*
X1015139Y650500D02*
X1033100Y650500D01*
X932770Y550170D02*
X932770Y404466D01*
X932770Y550170D02*
X1007700Y625100D01*
X876300Y165100D02*
X876300Y76200D01*
X965200Y354000D02*
X995000Y383800D01*
X965200Y254000D02*
X876300Y165100D01*
X965200Y254000D02*
X965200Y354000D01*
X901700Y165100D02*
X901700Y76200D01*
X990600Y254000D02*
X990600Y355600D01*
X1018800Y383800D01*
X1020400Y383800D01*
X990600Y254000D02*
X901700Y165100D01*
X927100Y76200D02*
X927100Y63500D01*
X939800Y50800D01*
X965200Y50800D01*
X990600Y76200D01*
X1066800Y379400D02*
X1071200Y383800D01*
X990600Y203200D02*
X990600Y76200D01*
X990600Y203200D02*
X1066800Y279400D01*
X1066800Y379400D01*
X952500Y190500D02*
X952500Y76200D01*
X952500Y190500D02*
X1041400Y279400D01*
X1034370Y379066D02*
X1034370Y388535D01*
X1045800Y399965D02*
X1045800Y409200D01*
X1045800Y399965D02*
X1034370Y388535D01*
X1041400Y372036D02*
X1041400Y279400D01*
X1041400Y372036D02*
X1034370Y379066D01*
X812800Y939800D02*
X838200Y965200D01*
X1274400Y859200D02*
X1274400Y663200D01*
X1168400Y965200D02*
X838200Y965200D01*
X1168400Y965200D02*
X1274400Y859200D01*
X838200Y863600D02*
X838200Y939800D01*
X1059770Y658466D02*
X1062318Y655918D01*
X1050535Y674630D02*
X1027170Y674630D01*
X1050535Y674630D02*
X1059770Y665395D01*
X1059770Y658466D01*
X1062318Y655918D02*
X1062318Y654318D01*
X1045800Y637800D01*
X1027170Y674630D02*
X838200Y863600D01*
M02*
