G04 EAGLE Gerber RS-274X export*
G75*
%MOMM*%
%FSLAX34Y34*%
%LPD*%
%INCopper Layer 2*%
%IPPOS*%
%AMOC8*
5,1,8,0,0,1.08239X$1,22.5*%
G01*
%ADD10C,4.191000*%
%ADD11C,1.397000*%
%ADD12C,1.508000*%
%ADD13C,0.533400*%

G36*
X1359601Y10168D02*
X1359601Y10168D01*
X1359668Y10165D01*
X1359795Y10187D01*
X1359923Y10201D01*
X1359986Y10221D01*
X1360052Y10232D01*
X1360171Y10280D01*
X1360294Y10319D01*
X1360352Y10351D01*
X1360414Y10376D01*
X1360521Y10447D01*
X1360634Y10510D01*
X1360684Y10554D01*
X1360740Y10590D01*
X1360831Y10681D01*
X1360928Y10766D01*
X1360968Y10819D01*
X1361015Y10866D01*
X1361085Y10974D01*
X1361163Y11077D01*
X1361191Y11137D01*
X1361228Y11193D01*
X1361275Y11313D01*
X1361330Y11429D01*
X1361346Y11494D01*
X1361370Y11556D01*
X1361382Y11642D01*
X1361422Y11808D01*
X1361427Y11978D01*
X1361439Y12065D01*
X1361439Y248438D01*
X1361434Y248488D01*
X1361437Y248538D01*
X1361414Y248682D01*
X1361399Y248826D01*
X1361384Y248874D01*
X1361377Y248923D01*
X1361325Y249059D01*
X1361281Y249198D01*
X1361257Y249241D01*
X1361239Y249288D01*
X1361161Y249411D01*
X1361090Y249537D01*
X1361057Y249575D01*
X1361031Y249617D01*
X1360929Y249722D01*
X1360834Y249831D01*
X1360794Y249861D01*
X1360759Y249897D01*
X1360639Y249979D01*
X1360523Y250066D01*
X1360478Y250088D01*
X1360437Y250116D01*
X1360302Y250171D01*
X1360171Y250233D01*
X1360123Y250245D01*
X1360076Y250264D01*
X1359933Y250291D01*
X1359792Y250325D01*
X1359742Y250327D01*
X1359693Y250336D01*
X1359548Y250333D01*
X1359402Y250338D01*
X1359353Y250330D01*
X1359303Y250329D01*
X1359217Y250306D01*
X1359018Y250271D01*
X1358885Y250219D01*
X1358806Y250198D01*
X1353573Y248030D01*
X1346955Y248030D01*
X1340839Y250563D01*
X1336159Y255243D01*
X1333626Y261359D01*
X1333626Y267977D01*
X1334058Y269019D01*
X1334086Y269115D01*
X1334124Y269207D01*
X1334142Y269301D01*
X1334169Y269393D01*
X1334178Y269492D01*
X1334196Y269590D01*
X1334194Y269686D01*
X1334202Y269781D01*
X1334191Y269880D01*
X1334189Y269980D01*
X1334170Y270050D01*
X1334156Y270168D01*
X1334079Y270396D01*
X1334058Y270477D01*
X1333626Y271519D01*
X1333626Y278137D01*
X1336159Y284253D01*
X1340839Y288933D01*
X1346955Y291466D01*
X1353573Y291466D01*
X1358806Y289298D01*
X1358854Y289284D01*
X1358899Y289263D01*
X1359040Y289228D01*
X1359180Y289187D01*
X1359229Y289182D01*
X1359278Y289171D01*
X1359423Y289166D01*
X1359568Y289154D01*
X1359618Y289160D01*
X1359668Y289158D01*
X1359811Y289183D01*
X1359955Y289200D01*
X1360002Y289216D01*
X1360052Y289225D01*
X1360187Y289278D01*
X1360325Y289325D01*
X1360368Y289350D01*
X1360414Y289368D01*
X1360535Y289448D01*
X1360661Y289522D01*
X1360698Y289555D01*
X1360740Y289583D01*
X1360842Y289686D01*
X1360950Y289783D01*
X1360979Y289823D01*
X1361015Y289859D01*
X1361094Y289981D01*
X1361180Y290098D01*
X1361200Y290143D01*
X1361228Y290185D01*
X1361281Y290321D01*
X1361341Y290453D01*
X1361352Y290502D01*
X1361370Y290548D01*
X1361382Y290637D01*
X1361426Y290833D01*
X1361428Y290977D01*
X1361439Y291058D01*
X1361439Y1003935D01*
X1361432Y1004001D01*
X1361435Y1004068D01*
X1361413Y1004195D01*
X1361399Y1004323D01*
X1361379Y1004386D01*
X1361368Y1004452D01*
X1361320Y1004571D01*
X1361281Y1004694D01*
X1361249Y1004752D01*
X1361224Y1004814D01*
X1361153Y1004921D01*
X1361090Y1005034D01*
X1361046Y1005084D01*
X1361010Y1005140D01*
X1360919Y1005231D01*
X1360834Y1005328D01*
X1360781Y1005368D01*
X1360734Y1005415D01*
X1360626Y1005485D01*
X1360523Y1005563D01*
X1360463Y1005591D01*
X1360407Y1005628D01*
X1360287Y1005675D01*
X1360171Y1005730D01*
X1360106Y1005746D01*
X1360044Y1005770D01*
X1359958Y1005782D01*
X1359792Y1005822D01*
X1359622Y1005827D01*
X1359535Y1005839D01*
X12065Y1005839D01*
X11999Y1005832D01*
X11932Y1005835D01*
X11805Y1005813D01*
X11677Y1005799D01*
X11614Y1005779D01*
X11548Y1005768D01*
X11429Y1005720D01*
X11306Y1005681D01*
X11248Y1005649D01*
X11186Y1005624D01*
X11079Y1005553D01*
X10966Y1005490D01*
X10916Y1005446D01*
X10860Y1005410D01*
X10769Y1005319D01*
X10672Y1005234D01*
X10632Y1005181D01*
X10585Y1005134D01*
X10515Y1005026D01*
X10437Y1004923D01*
X10409Y1004863D01*
X10372Y1004807D01*
X10325Y1004687D01*
X10270Y1004571D01*
X10254Y1004506D01*
X10230Y1004444D01*
X10218Y1004358D01*
X10178Y1004192D01*
X10173Y1004022D01*
X10161Y1003935D01*
X10161Y12065D01*
X10168Y11999D01*
X10165Y11932D01*
X10187Y11805D01*
X10201Y11677D01*
X10221Y11614D01*
X10232Y11548D01*
X10280Y11429D01*
X10319Y11306D01*
X10351Y11248D01*
X10376Y11186D01*
X10447Y11079D01*
X10510Y10966D01*
X10554Y10916D01*
X10590Y10860D01*
X10681Y10769D01*
X10766Y10672D01*
X10819Y10632D01*
X10866Y10585D01*
X10974Y10515D01*
X11077Y10437D01*
X11137Y10409D01*
X11193Y10372D01*
X11313Y10325D01*
X11429Y10270D01*
X11494Y10254D01*
X11556Y10230D01*
X11642Y10218D01*
X11808Y10178D01*
X11978Y10173D01*
X12065Y10161D01*
X1359535Y10161D01*
X1359601Y10168D01*
G37*
%LPC*%
G36*
X467642Y928449D02*
X467642Y928449D01*
X463470Y930177D01*
X460277Y933370D01*
X458549Y937542D01*
X458549Y942058D01*
X460277Y946230D01*
X463470Y949423D01*
X467642Y951151D01*
X472158Y951151D01*
X476330Y949423D01*
X479523Y946230D01*
X480841Y943048D01*
X480857Y943018D01*
X480867Y942987D01*
X480949Y942848D01*
X481026Y942705D01*
X481047Y942679D01*
X481064Y942651D01*
X481172Y942531D01*
X481277Y942407D01*
X481303Y942386D01*
X481326Y942361D01*
X481456Y942266D01*
X481584Y942166D01*
X481614Y942151D01*
X481640Y942132D01*
X481788Y942065D01*
X481933Y941993D01*
X481965Y941984D01*
X481995Y941971D01*
X482153Y941935D01*
X482310Y941894D01*
X482343Y941893D01*
X482376Y941885D01*
X482537Y941883D01*
X482699Y941875D01*
X482732Y941880D01*
X482766Y941879D01*
X482924Y941910D01*
X483085Y941935D01*
X483116Y941947D01*
X483148Y941953D01*
X483298Y942015D01*
X483449Y942072D01*
X483477Y942090D01*
X483508Y942103D01*
X483642Y942194D01*
X483779Y942281D01*
X483803Y942304D01*
X483830Y942323D01*
X483942Y942439D01*
X484058Y942552D01*
X484077Y942580D01*
X484100Y942604D01*
X484142Y942676D01*
X484277Y942875D01*
X484322Y942984D01*
X484359Y943048D01*
X485677Y946230D01*
X488870Y949423D01*
X493042Y951151D01*
X497558Y951151D01*
X501730Y949423D01*
X504923Y946230D01*
X506241Y943048D01*
X506257Y943018D01*
X506267Y942987D01*
X506349Y942848D01*
X506426Y942705D01*
X506447Y942679D01*
X506464Y942651D01*
X506572Y942531D01*
X506677Y942407D01*
X506703Y942386D01*
X506726Y942361D01*
X506856Y942266D01*
X506984Y942166D01*
X507014Y942151D01*
X507040Y942132D01*
X507188Y942065D01*
X507333Y941993D01*
X507365Y941984D01*
X507395Y941971D01*
X507553Y941935D01*
X507710Y941894D01*
X507743Y941893D01*
X507776Y941885D01*
X507937Y941883D01*
X508099Y941875D01*
X508132Y941880D01*
X508166Y941879D01*
X508324Y941910D01*
X508485Y941935D01*
X508516Y941947D01*
X508548Y941953D01*
X508698Y942015D01*
X508849Y942072D01*
X508877Y942090D01*
X508908Y942103D01*
X509042Y942194D01*
X509179Y942281D01*
X509203Y942304D01*
X509230Y942323D01*
X509342Y942439D01*
X509458Y942552D01*
X509477Y942580D01*
X509500Y942604D01*
X509542Y942676D01*
X509677Y942875D01*
X509722Y942984D01*
X509759Y943048D01*
X511077Y946230D01*
X514270Y949423D01*
X518442Y951151D01*
X522958Y951151D01*
X527130Y949423D01*
X530323Y946230D01*
X531641Y943048D01*
X531657Y943018D01*
X531667Y942987D01*
X531749Y942847D01*
X531826Y942705D01*
X531847Y942679D01*
X531864Y942651D01*
X531973Y942530D01*
X532077Y942407D01*
X532103Y942386D01*
X532126Y942361D01*
X532256Y942266D01*
X532384Y942166D01*
X532414Y942151D01*
X532440Y942132D01*
X532588Y942065D01*
X532733Y941993D01*
X532765Y941984D01*
X532796Y941971D01*
X532953Y941935D01*
X533110Y941894D01*
X533144Y941893D01*
X533176Y941885D01*
X533337Y941883D01*
X533499Y941875D01*
X533532Y941880D01*
X533566Y941879D01*
X533725Y941910D01*
X533885Y941935D01*
X533916Y941947D01*
X533948Y941953D01*
X534098Y942015D01*
X534249Y942072D01*
X534278Y942090D01*
X534308Y942103D01*
X534442Y942194D01*
X534579Y942281D01*
X534603Y942304D01*
X534630Y942323D01*
X534742Y942440D01*
X534859Y942552D01*
X534877Y942580D01*
X534900Y942604D01*
X534942Y942676D01*
X535077Y942875D01*
X535123Y942985D01*
X535159Y943048D01*
X536477Y946230D01*
X539670Y949423D01*
X543842Y951151D01*
X548358Y951151D01*
X552530Y949423D01*
X555723Y946230D01*
X557041Y943048D01*
X557057Y943018D01*
X557067Y942987D01*
X557149Y942847D01*
X557226Y942705D01*
X557247Y942679D01*
X557264Y942651D01*
X557373Y942530D01*
X557477Y942407D01*
X557503Y942386D01*
X557526Y942361D01*
X557657Y942266D01*
X557784Y942166D01*
X557814Y942151D01*
X557840Y942132D01*
X557988Y942065D01*
X558133Y941993D01*
X558165Y941984D01*
X558195Y941971D01*
X558353Y941935D01*
X558510Y941894D01*
X558543Y941893D01*
X558576Y941885D01*
X558737Y941883D01*
X558899Y941875D01*
X558932Y941880D01*
X558966Y941879D01*
X559124Y941910D01*
X559285Y941935D01*
X559316Y941947D01*
X559348Y941953D01*
X559498Y942015D01*
X559649Y942072D01*
X559677Y942090D01*
X559708Y942103D01*
X559842Y942194D01*
X559979Y942281D01*
X560003Y942304D01*
X560030Y942323D01*
X560142Y942439D01*
X560258Y942552D01*
X560277Y942580D01*
X560300Y942604D01*
X560342Y942676D01*
X560477Y942875D01*
X560522Y942984D01*
X560559Y943048D01*
X561877Y946230D01*
X565070Y949423D01*
X569242Y951151D01*
X573758Y951151D01*
X577930Y949423D01*
X581123Y946230D01*
X582441Y943048D01*
X582457Y943018D01*
X582467Y942987D01*
X582549Y942847D01*
X582626Y942705D01*
X582647Y942679D01*
X582664Y942651D01*
X582773Y942530D01*
X582877Y942407D01*
X582903Y942386D01*
X582926Y942361D01*
X583057Y942266D01*
X583184Y942166D01*
X583214Y942151D01*
X583240Y942132D01*
X583388Y942065D01*
X583533Y941993D01*
X583565Y941984D01*
X583595Y941971D01*
X583753Y941935D01*
X583910Y941894D01*
X583943Y941893D01*
X583976Y941885D01*
X584137Y941883D01*
X584299Y941875D01*
X584332Y941880D01*
X584366Y941879D01*
X584524Y941910D01*
X584685Y941935D01*
X584716Y941947D01*
X584748Y941953D01*
X584898Y942015D01*
X585049Y942072D01*
X585077Y942090D01*
X585108Y942103D01*
X585242Y942194D01*
X585379Y942281D01*
X585403Y942304D01*
X585430Y942323D01*
X585542Y942439D01*
X585658Y942552D01*
X585677Y942580D01*
X585700Y942604D01*
X585742Y942676D01*
X585877Y942875D01*
X585922Y942984D01*
X585959Y943048D01*
X587277Y946230D01*
X590470Y949423D01*
X594642Y951151D01*
X599158Y951151D01*
X603330Y949423D01*
X606523Y946230D01*
X607841Y943048D01*
X607857Y943018D01*
X607867Y942987D01*
X607949Y942847D01*
X608026Y942705D01*
X608047Y942679D01*
X608064Y942651D01*
X608173Y942530D01*
X608277Y942407D01*
X608303Y942386D01*
X608326Y942361D01*
X608457Y942266D01*
X608584Y942166D01*
X608614Y942151D01*
X608640Y942132D01*
X608788Y942065D01*
X608933Y941993D01*
X608965Y941984D01*
X608995Y941971D01*
X609153Y941935D01*
X609310Y941894D01*
X609343Y941893D01*
X609376Y941885D01*
X609537Y941883D01*
X609699Y941875D01*
X609732Y941880D01*
X609766Y941879D01*
X609924Y941910D01*
X610085Y941935D01*
X610116Y941947D01*
X610148Y941953D01*
X610298Y942015D01*
X610449Y942072D01*
X610477Y942090D01*
X610508Y942103D01*
X610642Y942194D01*
X610779Y942281D01*
X610803Y942304D01*
X610830Y942323D01*
X610942Y942439D01*
X611058Y942552D01*
X611077Y942580D01*
X611100Y942604D01*
X611142Y942676D01*
X611277Y942875D01*
X611322Y942984D01*
X611359Y943048D01*
X612677Y946230D01*
X615870Y949423D01*
X620042Y951151D01*
X624558Y951151D01*
X628730Y949423D01*
X631923Y946230D01*
X633241Y943048D01*
X633257Y943018D01*
X633267Y942987D01*
X633349Y942847D01*
X633426Y942705D01*
X633447Y942679D01*
X633464Y942651D01*
X633573Y942530D01*
X633677Y942407D01*
X633703Y942386D01*
X633726Y942361D01*
X633857Y942266D01*
X633984Y942166D01*
X634014Y942151D01*
X634040Y942132D01*
X634188Y942065D01*
X634333Y941993D01*
X634365Y941984D01*
X634395Y941971D01*
X634553Y941935D01*
X634710Y941894D01*
X634743Y941893D01*
X634776Y941885D01*
X634937Y941883D01*
X635099Y941875D01*
X635132Y941880D01*
X635166Y941879D01*
X635324Y941910D01*
X635485Y941935D01*
X635516Y941947D01*
X635548Y941953D01*
X635698Y942015D01*
X635849Y942072D01*
X635877Y942090D01*
X635908Y942103D01*
X636042Y942194D01*
X636179Y942281D01*
X636203Y942304D01*
X636230Y942323D01*
X636342Y942439D01*
X636458Y942552D01*
X636477Y942580D01*
X636500Y942604D01*
X636542Y942676D01*
X636677Y942875D01*
X636722Y942984D01*
X636759Y943048D01*
X638077Y946230D01*
X641270Y949423D01*
X645442Y951151D01*
X649958Y951151D01*
X654130Y949423D01*
X657323Y946230D01*
X659051Y942058D01*
X659051Y937542D01*
X657323Y933370D01*
X654130Y930177D01*
X649958Y928449D01*
X645442Y928449D01*
X641270Y930177D01*
X638077Y933370D01*
X636759Y936552D01*
X636743Y936582D01*
X636733Y936613D01*
X636651Y936753D01*
X636574Y936895D01*
X636553Y936921D01*
X636536Y936949D01*
X636427Y937070D01*
X636323Y937193D01*
X636297Y937214D01*
X636274Y937239D01*
X636144Y937334D01*
X636016Y937434D01*
X635986Y937449D01*
X635960Y937468D01*
X635812Y937535D01*
X635667Y937607D01*
X635635Y937616D01*
X635604Y937629D01*
X635447Y937665D01*
X635290Y937706D01*
X635256Y937707D01*
X635224Y937715D01*
X635063Y937717D01*
X634901Y937725D01*
X634868Y937720D01*
X634834Y937721D01*
X634675Y937690D01*
X634515Y937665D01*
X634484Y937653D01*
X634452Y937647D01*
X634302Y937585D01*
X634151Y937528D01*
X634122Y937510D01*
X634092Y937497D01*
X633958Y937406D01*
X633821Y937319D01*
X633797Y937296D01*
X633770Y937277D01*
X633658Y937160D01*
X633541Y937048D01*
X633523Y937020D01*
X633500Y936996D01*
X633458Y936924D01*
X633323Y936725D01*
X633277Y936615D01*
X633241Y936552D01*
X631923Y933370D01*
X628730Y930177D01*
X624558Y928449D01*
X620042Y928449D01*
X615870Y930177D01*
X612677Y933370D01*
X611359Y936552D01*
X611343Y936582D01*
X611333Y936613D01*
X611251Y936753D01*
X611174Y936895D01*
X611153Y936921D01*
X611136Y936949D01*
X611027Y937070D01*
X610923Y937193D01*
X610897Y937214D01*
X610874Y937239D01*
X610744Y937334D01*
X610616Y937434D01*
X610586Y937449D01*
X610560Y937468D01*
X610412Y937535D01*
X610267Y937607D01*
X610235Y937616D01*
X610204Y937629D01*
X610047Y937665D01*
X609890Y937706D01*
X609856Y937707D01*
X609824Y937715D01*
X609663Y937717D01*
X609501Y937725D01*
X609468Y937720D01*
X609434Y937721D01*
X609275Y937690D01*
X609115Y937665D01*
X609084Y937653D01*
X609052Y937647D01*
X608902Y937585D01*
X608751Y937528D01*
X608722Y937510D01*
X608692Y937497D01*
X608558Y937406D01*
X608421Y937319D01*
X608397Y937296D01*
X608370Y937277D01*
X608258Y937160D01*
X608141Y937048D01*
X608123Y937020D01*
X608100Y936996D01*
X608058Y936924D01*
X607923Y936725D01*
X607877Y936615D01*
X607841Y936552D01*
X606523Y933370D01*
X603330Y930177D01*
X599158Y928449D01*
X594642Y928449D01*
X590470Y930177D01*
X587277Y933370D01*
X585959Y936552D01*
X585943Y936582D01*
X585933Y936613D01*
X585851Y936753D01*
X585774Y936895D01*
X585753Y936921D01*
X585736Y936949D01*
X585627Y937070D01*
X585523Y937193D01*
X585497Y937214D01*
X585474Y937239D01*
X585344Y937334D01*
X585216Y937434D01*
X585186Y937449D01*
X585160Y937468D01*
X585012Y937535D01*
X584867Y937607D01*
X584835Y937616D01*
X584804Y937629D01*
X584647Y937665D01*
X584490Y937706D01*
X584456Y937707D01*
X584424Y937715D01*
X584263Y937717D01*
X584101Y937725D01*
X584068Y937720D01*
X584034Y937721D01*
X583875Y937690D01*
X583715Y937665D01*
X583684Y937653D01*
X583652Y937647D01*
X583502Y937585D01*
X583351Y937528D01*
X583322Y937510D01*
X583292Y937497D01*
X583158Y937406D01*
X583021Y937319D01*
X582997Y937296D01*
X582970Y937277D01*
X582858Y937160D01*
X582741Y937048D01*
X582723Y937020D01*
X582700Y936996D01*
X582658Y936924D01*
X582523Y936725D01*
X582477Y936615D01*
X582441Y936552D01*
X581123Y933370D01*
X577930Y930177D01*
X573758Y928449D01*
X569242Y928449D01*
X565070Y930177D01*
X561877Y933370D01*
X560559Y936552D01*
X560543Y936582D01*
X560533Y936613D01*
X560451Y936753D01*
X560374Y936895D01*
X560353Y936921D01*
X560336Y936949D01*
X560227Y937070D01*
X560123Y937193D01*
X560097Y937214D01*
X560074Y937239D01*
X559944Y937334D01*
X559816Y937434D01*
X559786Y937449D01*
X559760Y937468D01*
X559612Y937535D01*
X559467Y937607D01*
X559435Y937616D01*
X559404Y937629D01*
X559247Y937665D01*
X559090Y937706D01*
X559056Y937707D01*
X559024Y937715D01*
X558863Y937717D01*
X558701Y937725D01*
X558668Y937720D01*
X558634Y937721D01*
X558475Y937690D01*
X558315Y937665D01*
X558284Y937653D01*
X558252Y937647D01*
X558102Y937585D01*
X557951Y937528D01*
X557922Y937510D01*
X557892Y937497D01*
X557758Y937406D01*
X557621Y937319D01*
X557597Y937296D01*
X557570Y937277D01*
X557458Y937160D01*
X557341Y937048D01*
X557323Y937020D01*
X557300Y936996D01*
X557258Y936924D01*
X557123Y936725D01*
X557077Y936615D01*
X557041Y936552D01*
X555723Y933370D01*
X552530Y930177D01*
X548358Y928449D01*
X543842Y928449D01*
X539670Y930177D01*
X536477Y933370D01*
X535159Y936552D01*
X535143Y936582D01*
X535133Y936613D01*
X535051Y936753D01*
X534974Y936895D01*
X534953Y936921D01*
X534936Y936949D01*
X534827Y937070D01*
X534723Y937193D01*
X534697Y937214D01*
X534674Y937239D01*
X534543Y937334D01*
X534416Y937434D01*
X534386Y937449D01*
X534360Y937468D01*
X534212Y937535D01*
X534067Y937607D01*
X534035Y937616D01*
X534005Y937629D01*
X533847Y937665D01*
X533690Y937706D01*
X533657Y937707D01*
X533624Y937715D01*
X533463Y937717D01*
X533301Y937725D01*
X533268Y937720D01*
X533234Y937721D01*
X533076Y937690D01*
X532915Y937665D01*
X532884Y937653D01*
X532852Y937647D01*
X532702Y937585D01*
X532551Y937528D01*
X532523Y937510D01*
X532492Y937497D01*
X532358Y937406D01*
X532221Y937319D01*
X532197Y937296D01*
X532170Y937277D01*
X532058Y937161D01*
X531942Y937048D01*
X531923Y937020D01*
X531900Y936996D01*
X531858Y936924D01*
X531723Y936725D01*
X531678Y936616D01*
X531641Y936552D01*
X530323Y933370D01*
X527130Y930177D01*
X522958Y928449D01*
X518442Y928449D01*
X514270Y930177D01*
X511077Y933370D01*
X509759Y936552D01*
X509743Y936582D01*
X509733Y936613D01*
X509651Y936753D01*
X509574Y936895D01*
X509553Y936921D01*
X509536Y936949D01*
X509427Y937070D01*
X509323Y937193D01*
X509297Y937214D01*
X509274Y937239D01*
X509143Y937334D01*
X509016Y937434D01*
X508987Y937449D01*
X508960Y937468D01*
X508812Y937535D01*
X508667Y937607D01*
X508635Y937616D01*
X508604Y937629D01*
X508447Y937665D01*
X508290Y937706D01*
X508256Y937707D01*
X508224Y937715D01*
X508063Y937717D01*
X507901Y937725D01*
X507868Y937720D01*
X507834Y937721D01*
X507676Y937690D01*
X507515Y937665D01*
X507484Y937653D01*
X507452Y937647D01*
X507302Y937585D01*
X507151Y937528D01*
X507122Y937510D01*
X507092Y937497D01*
X506958Y937406D01*
X506821Y937319D01*
X506797Y937296D01*
X506770Y937277D01*
X506658Y937160D01*
X506541Y937048D01*
X506523Y937020D01*
X506500Y936996D01*
X506458Y936924D01*
X506323Y936725D01*
X506277Y936615D01*
X506241Y936552D01*
X504923Y933370D01*
X501730Y930177D01*
X497558Y928449D01*
X493042Y928449D01*
X488870Y930177D01*
X485677Y933370D01*
X484359Y936552D01*
X484343Y936582D01*
X484333Y936613D01*
X484251Y936753D01*
X484174Y936895D01*
X484153Y936921D01*
X484136Y936949D01*
X484027Y937070D01*
X483923Y937193D01*
X483897Y937214D01*
X483874Y937239D01*
X483743Y937334D01*
X483616Y937434D01*
X483587Y937449D01*
X483560Y937468D01*
X483412Y937535D01*
X483267Y937607D01*
X483235Y937616D01*
X483204Y937629D01*
X483047Y937665D01*
X482890Y937706D01*
X482856Y937707D01*
X482824Y937715D01*
X482663Y937717D01*
X482501Y937725D01*
X482468Y937720D01*
X482434Y937721D01*
X482276Y937690D01*
X482115Y937665D01*
X482084Y937653D01*
X482052Y937647D01*
X481902Y937585D01*
X481751Y937528D01*
X481722Y937510D01*
X481692Y937497D01*
X481558Y937406D01*
X481421Y937319D01*
X481397Y937296D01*
X481370Y937277D01*
X481258Y937160D01*
X481141Y937048D01*
X481123Y937020D01*
X481100Y936996D01*
X481058Y936924D01*
X480923Y936725D01*
X480877Y936615D01*
X480841Y936552D01*
X479523Y933370D01*
X476330Y930177D01*
X472158Y928449D01*
X467642Y928449D01*
G37*
%LPD*%
%LPC*%
G36*
X1293253Y249046D02*
X1293253Y249046D01*
X1289285Y250690D01*
X1286248Y253727D01*
X1284604Y257695D01*
X1284604Y261989D01*
X1286248Y265957D01*
X1288819Y268529D01*
X1288861Y268580D01*
X1288909Y268625D01*
X1288984Y268731D01*
X1289065Y268831D01*
X1289096Y268890D01*
X1289134Y268944D01*
X1289185Y269063D01*
X1289244Y269177D01*
X1289262Y269241D01*
X1289289Y269302D01*
X1289315Y269428D01*
X1289349Y269552D01*
X1289354Y269619D01*
X1289367Y269684D01*
X1289367Y269813D01*
X1289376Y269941D01*
X1289367Y270007D01*
X1289366Y270074D01*
X1289340Y270200D01*
X1289322Y270327D01*
X1289300Y270390D01*
X1289286Y270455D01*
X1289235Y270573D01*
X1289191Y270695D01*
X1289157Y270751D01*
X1289130Y270812D01*
X1289077Y270882D01*
X1288988Y271027D01*
X1288872Y271152D01*
X1288819Y271222D01*
X1286248Y273793D01*
X1284604Y277761D01*
X1284604Y282055D01*
X1286248Y286023D01*
X1289285Y289060D01*
X1292989Y290595D01*
X1293019Y290611D01*
X1293050Y290621D01*
X1293190Y290703D01*
X1293332Y290780D01*
X1293358Y290801D01*
X1293387Y290818D01*
X1293507Y290927D01*
X1293630Y291031D01*
X1293651Y291057D01*
X1293676Y291080D01*
X1293771Y291211D01*
X1293871Y291338D01*
X1293886Y291367D01*
X1293906Y291394D01*
X1293973Y291542D01*
X1294044Y291687D01*
X1294053Y291719D01*
X1294066Y291750D01*
X1294102Y291907D01*
X1294143Y292064D01*
X1294144Y292097D01*
X1294152Y292130D01*
X1294154Y292291D01*
X1294162Y292453D01*
X1294157Y292486D01*
X1294158Y292520D01*
X1294127Y292678D01*
X1294102Y292839D01*
X1294091Y292870D01*
X1294084Y292902D01*
X1294022Y293052D01*
X1293965Y293203D01*
X1293947Y293232D01*
X1293934Y293262D01*
X1293843Y293396D01*
X1293756Y293533D01*
X1293733Y293557D01*
X1293714Y293584D01*
X1293598Y293696D01*
X1293485Y293813D01*
X1293457Y293831D01*
X1293433Y293854D01*
X1293361Y293896D01*
X1293162Y294031D01*
X1293052Y294077D01*
X1292989Y294113D01*
X1289285Y295648D01*
X1286248Y298685D01*
X1284604Y302653D01*
X1284604Y306947D01*
X1286248Y310915D01*
X1289285Y313952D01*
X1292916Y315456D01*
X1292946Y315472D01*
X1292977Y315483D01*
X1293117Y315565D01*
X1293259Y315642D01*
X1293285Y315663D01*
X1293313Y315680D01*
X1293434Y315789D01*
X1293557Y315893D01*
X1293578Y315919D01*
X1293603Y315941D01*
X1293698Y316073D01*
X1293798Y316200D01*
X1293813Y316229D01*
X1293832Y316256D01*
X1293899Y316404D01*
X1293971Y316549D01*
X1293980Y316581D01*
X1293993Y316611D01*
X1294029Y316769D01*
X1294070Y316926D01*
X1294071Y316959D01*
X1294079Y316992D01*
X1294081Y317153D01*
X1294089Y317315D01*
X1294084Y317348D01*
X1294085Y317381D01*
X1294054Y317540D01*
X1294029Y317700D01*
X1294017Y317732D01*
X1294011Y317764D01*
X1293949Y317913D01*
X1293892Y318065D01*
X1293874Y318093D01*
X1293861Y318124D01*
X1293770Y318257D01*
X1293683Y318394D01*
X1293660Y318418D01*
X1293641Y318446D01*
X1293525Y318558D01*
X1293412Y318674D01*
X1293384Y318693D01*
X1293360Y318716D01*
X1293288Y318758D01*
X1293089Y318893D01*
X1292979Y318938D01*
X1292916Y318975D01*
X1286991Y321429D01*
X1282311Y326109D01*
X1279778Y332225D01*
X1279778Y338843D01*
X1282311Y344959D01*
X1286991Y349639D01*
X1293107Y352172D01*
X1299725Y352172D01*
X1300767Y351740D01*
X1300862Y351712D01*
X1300955Y351674D01*
X1301049Y351656D01*
X1301141Y351629D01*
X1301240Y351620D01*
X1301338Y351602D01*
X1301434Y351604D01*
X1301529Y351596D01*
X1301628Y351607D01*
X1301728Y351609D01*
X1301798Y351628D01*
X1301916Y351642D01*
X1302144Y351719D01*
X1302225Y351740D01*
X1303267Y352172D01*
X1309885Y352172D01*
X1316001Y349639D01*
X1320681Y344959D01*
X1323214Y338843D01*
X1323214Y332225D01*
X1320681Y326109D01*
X1316001Y321429D01*
X1309885Y318896D01*
X1303267Y318896D01*
X1302225Y319328D01*
X1302129Y319356D01*
X1302037Y319394D01*
X1301943Y319412D01*
X1301851Y319439D01*
X1301752Y319448D01*
X1301654Y319466D01*
X1301558Y319464D01*
X1301463Y319472D01*
X1301364Y319461D01*
X1301264Y319459D01*
X1301194Y319440D01*
X1301076Y319426D01*
X1300848Y319349D01*
X1300767Y319328D01*
X1299725Y318896D01*
X1299152Y318896D01*
X1299136Y318895D01*
X1299119Y318896D01*
X1298942Y318875D01*
X1298765Y318856D01*
X1298749Y318851D01*
X1298732Y318849D01*
X1298563Y318792D01*
X1298393Y318738D01*
X1298379Y318730D01*
X1298363Y318725D01*
X1298209Y318635D01*
X1298054Y318547D01*
X1298041Y318536D01*
X1298027Y318528D01*
X1297894Y318408D01*
X1297760Y318291D01*
X1297750Y318278D01*
X1297737Y318266D01*
X1297632Y318122D01*
X1297525Y317980D01*
X1297517Y317965D01*
X1297508Y317952D01*
X1297434Y317789D01*
X1297358Y317628D01*
X1297354Y317612D01*
X1297347Y317597D01*
X1297308Y317422D01*
X1297266Y317249D01*
X1297265Y317232D01*
X1297261Y317216D01*
X1297259Y317038D01*
X1297253Y316859D01*
X1297256Y316843D01*
X1297255Y316826D01*
X1297289Y316651D01*
X1297320Y316475D01*
X1297326Y316460D01*
X1297329Y316444D01*
X1297398Y316279D01*
X1297463Y316113D01*
X1297472Y316099D01*
X1297479Y316084D01*
X1297579Y315937D01*
X1297678Y315788D01*
X1297689Y315776D01*
X1297699Y315762D01*
X1297827Y315639D01*
X1297954Y315512D01*
X1297968Y315503D01*
X1297980Y315492D01*
X1298033Y315461D01*
X1298280Y315299D01*
X1298370Y315264D01*
X1298424Y315233D01*
X1301515Y313952D01*
X1304552Y310915D01*
X1306196Y306947D01*
X1306196Y302653D01*
X1304552Y298685D01*
X1301515Y295648D01*
X1297811Y294113D01*
X1297781Y294097D01*
X1297750Y294087D01*
X1297611Y294005D01*
X1297468Y293928D01*
X1297442Y293907D01*
X1297413Y293890D01*
X1297294Y293781D01*
X1297170Y293677D01*
X1297149Y293651D01*
X1297124Y293628D01*
X1297029Y293498D01*
X1296929Y293370D01*
X1296914Y293340D01*
X1296895Y293314D01*
X1296828Y293166D01*
X1296756Y293021D01*
X1296747Y292989D01*
X1296734Y292959D01*
X1296698Y292801D01*
X1296657Y292644D01*
X1296656Y292611D01*
X1296648Y292578D01*
X1296646Y292417D01*
X1296638Y292255D01*
X1296643Y292222D01*
X1296642Y292188D01*
X1296673Y292030D01*
X1296698Y291869D01*
X1296709Y291838D01*
X1296716Y291806D01*
X1296778Y291656D01*
X1296835Y291505D01*
X1296853Y291477D01*
X1296866Y291446D01*
X1296957Y291312D01*
X1297044Y291175D01*
X1297067Y291152D01*
X1297086Y291124D01*
X1297202Y291012D01*
X1297315Y290896D01*
X1297343Y290877D01*
X1297367Y290854D01*
X1297438Y290812D01*
X1297638Y290677D01*
X1297748Y290631D01*
X1297811Y290595D01*
X1301515Y289060D01*
X1304552Y286023D01*
X1306196Y282055D01*
X1306196Y277761D01*
X1304552Y273793D01*
X1301981Y271222D01*
X1301939Y271170D01*
X1301891Y271125D01*
X1301816Y271019D01*
X1301735Y270919D01*
X1301704Y270860D01*
X1301666Y270806D01*
X1301615Y270688D01*
X1301556Y270573D01*
X1301538Y270509D01*
X1301511Y270448D01*
X1301485Y270322D01*
X1301451Y270198D01*
X1301446Y270131D01*
X1301433Y270066D01*
X1301433Y269937D01*
X1301424Y269809D01*
X1301433Y269743D01*
X1301434Y269676D01*
X1301460Y269550D01*
X1301478Y269423D01*
X1301500Y269360D01*
X1301514Y269295D01*
X1301565Y269177D01*
X1301609Y269055D01*
X1301643Y268999D01*
X1301670Y268938D01*
X1301723Y268868D01*
X1301812Y268723D01*
X1301928Y268598D01*
X1301981Y268529D01*
X1304552Y265957D01*
X1306196Y261989D01*
X1306196Y257695D01*
X1304552Y253727D01*
X1301515Y250690D01*
X1297547Y249046D01*
X1293253Y249046D01*
G37*
%LPD*%
%LPC*%
G36*
X47540Y26034D02*
X47540Y26034D01*
X41241Y27722D01*
X35593Y30982D01*
X30982Y35593D01*
X27722Y41241D01*
X26034Y47540D01*
X26034Y54060D01*
X27722Y60359D01*
X30982Y66007D01*
X35593Y70618D01*
X41241Y73878D01*
X47540Y75566D01*
X54060Y75566D01*
X60359Y73878D01*
X66007Y70618D01*
X70618Y66007D01*
X73878Y60359D01*
X75566Y54060D01*
X75566Y47540D01*
X73878Y41241D01*
X70618Y35593D01*
X66007Y30982D01*
X60359Y27722D01*
X54060Y26034D01*
X47540Y26034D01*
G37*
%LPD*%
%LPC*%
G36*
X47540Y940434D02*
X47540Y940434D01*
X41241Y942122D01*
X35593Y945382D01*
X30982Y949993D01*
X27722Y955641D01*
X26034Y961940D01*
X26034Y968460D01*
X27722Y974759D01*
X30982Y980407D01*
X35593Y985018D01*
X41241Y988278D01*
X47540Y989966D01*
X54060Y989966D01*
X60359Y988278D01*
X66007Y985018D01*
X70618Y980407D01*
X73878Y974759D01*
X75566Y968460D01*
X75566Y961940D01*
X73878Y955641D01*
X70618Y949993D01*
X66007Y945382D01*
X60359Y942122D01*
X54060Y940434D01*
X47540Y940434D01*
G37*
%LPD*%
%LPC*%
G36*
X1317540Y26034D02*
X1317540Y26034D01*
X1311241Y27722D01*
X1305593Y30982D01*
X1300982Y35593D01*
X1297722Y41241D01*
X1296034Y47540D01*
X1296034Y54060D01*
X1297722Y60359D01*
X1300982Y66007D01*
X1305593Y70618D01*
X1311241Y73878D01*
X1317540Y75566D01*
X1324060Y75566D01*
X1330359Y73878D01*
X1336007Y70618D01*
X1340618Y66007D01*
X1343878Y60359D01*
X1345566Y54060D01*
X1345566Y47540D01*
X1343878Y41241D01*
X1340618Y35593D01*
X1336007Y30982D01*
X1330359Y27722D01*
X1324060Y26034D01*
X1317540Y26034D01*
G37*
%LPD*%
%LPC*%
G36*
X1317540Y940434D02*
X1317540Y940434D01*
X1311241Y942122D01*
X1305593Y945382D01*
X1300982Y949993D01*
X1297722Y955641D01*
X1296034Y961940D01*
X1296034Y968460D01*
X1297722Y974759D01*
X1300982Y980407D01*
X1305593Y985018D01*
X1311241Y988278D01*
X1317540Y989966D01*
X1324060Y989966D01*
X1330359Y988278D01*
X1336007Y985018D01*
X1340618Y980407D01*
X1343878Y974759D01*
X1345566Y968460D01*
X1345566Y961940D01*
X1343878Y955641D01*
X1340618Y949993D01*
X1336007Y945382D01*
X1330359Y942122D01*
X1324060Y940434D01*
X1317540Y940434D01*
G37*
%LPD*%
%LPC*%
G36*
X874042Y64849D02*
X874042Y64849D01*
X869870Y66577D01*
X866677Y69770D01*
X864949Y73942D01*
X864949Y78458D01*
X866677Y82630D01*
X869870Y85823D01*
X874042Y87551D01*
X878558Y87551D01*
X882730Y85823D01*
X885923Y82630D01*
X887241Y79448D01*
X887257Y79418D01*
X887267Y79387D01*
X887349Y79248D01*
X887426Y79105D01*
X887447Y79079D01*
X887464Y79051D01*
X887572Y78931D01*
X887677Y78807D01*
X887703Y78786D01*
X887726Y78761D01*
X887856Y78666D01*
X887984Y78566D01*
X888014Y78551D01*
X888040Y78532D01*
X888188Y78465D01*
X888333Y78393D01*
X888365Y78384D01*
X888395Y78371D01*
X888553Y78335D01*
X888710Y78294D01*
X888743Y78293D01*
X888776Y78285D01*
X888937Y78283D01*
X889099Y78275D01*
X889132Y78280D01*
X889166Y78279D01*
X889324Y78310D01*
X889485Y78335D01*
X889516Y78347D01*
X889548Y78353D01*
X889698Y78415D01*
X889849Y78472D01*
X889877Y78490D01*
X889908Y78503D01*
X890042Y78594D01*
X890179Y78681D01*
X890203Y78704D01*
X890230Y78723D01*
X890342Y78839D01*
X890458Y78952D01*
X890477Y78980D01*
X890500Y79004D01*
X890542Y79076D01*
X890677Y79275D01*
X890722Y79384D01*
X890759Y79448D01*
X892077Y82630D01*
X895270Y85823D01*
X899442Y87551D01*
X903958Y87551D01*
X908130Y85823D01*
X911323Y82630D01*
X912641Y79448D01*
X912657Y79418D01*
X912667Y79387D01*
X912749Y79248D01*
X912826Y79105D01*
X912847Y79079D01*
X912864Y79051D01*
X912972Y78931D01*
X913077Y78807D01*
X913103Y78786D01*
X913126Y78761D01*
X913256Y78666D01*
X913384Y78566D01*
X913414Y78551D01*
X913440Y78532D01*
X913588Y78465D01*
X913733Y78393D01*
X913765Y78384D01*
X913795Y78371D01*
X913953Y78335D01*
X914110Y78294D01*
X914143Y78293D01*
X914176Y78285D01*
X914337Y78283D01*
X914499Y78275D01*
X914532Y78280D01*
X914566Y78279D01*
X914724Y78310D01*
X914885Y78335D01*
X914916Y78347D01*
X914948Y78353D01*
X915098Y78415D01*
X915249Y78472D01*
X915277Y78490D01*
X915308Y78503D01*
X915442Y78594D01*
X915579Y78681D01*
X915603Y78704D01*
X915630Y78723D01*
X915742Y78839D01*
X915858Y78952D01*
X915877Y78980D01*
X915900Y79004D01*
X915942Y79076D01*
X916077Y79275D01*
X916122Y79384D01*
X916159Y79448D01*
X917477Y82630D01*
X920670Y85823D01*
X924842Y87551D01*
X929358Y87551D01*
X933530Y85823D01*
X936723Y82630D01*
X938041Y79448D01*
X938057Y79418D01*
X938067Y79387D01*
X938149Y79248D01*
X938226Y79105D01*
X938247Y79079D01*
X938264Y79051D01*
X938372Y78931D01*
X938477Y78807D01*
X938503Y78786D01*
X938526Y78761D01*
X938656Y78666D01*
X938784Y78566D01*
X938814Y78551D01*
X938840Y78532D01*
X938988Y78465D01*
X939133Y78393D01*
X939165Y78384D01*
X939195Y78371D01*
X939353Y78335D01*
X939510Y78294D01*
X939543Y78293D01*
X939576Y78285D01*
X939737Y78283D01*
X939899Y78275D01*
X939932Y78280D01*
X939966Y78279D01*
X940124Y78310D01*
X940285Y78335D01*
X940316Y78347D01*
X940348Y78353D01*
X940498Y78415D01*
X940649Y78472D01*
X940677Y78490D01*
X940708Y78503D01*
X940842Y78594D01*
X940979Y78681D01*
X941003Y78704D01*
X941030Y78723D01*
X941142Y78839D01*
X941258Y78952D01*
X941277Y78980D01*
X941300Y79004D01*
X941342Y79076D01*
X941477Y79275D01*
X941522Y79384D01*
X941559Y79448D01*
X942877Y82630D01*
X946070Y85823D01*
X950242Y87551D01*
X954758Y87551D01*
X958930Y85823D01*
X962123Y82630D01*
X963851Y78458D01*
X963851Y73942D01*
X962123Y69770D01*
X958930Y66577D01*
X954758Y64849D01*
X950242Y64849D01*
X946070Y66577D01*
X942877Y69770D01*
X941559Y72952D01*
X941543Y72982D01*
X941533Y73013D01*
X941451Y73153D01*
X941374Y73295D01*
X941353Y73321D01*
X941336Y73349D01*
X941227Y73470D01*
X941123Y73593D01*
X941097Y73614D01*
X941074Y73639D01*
X940943Y73734D01*
X940816Y73834D01*
X940787Y73849D01*
X940760Y73868D01*
X940612Y73935D01*
X940467Y74007D01*
X940435Y74016D01*
X940404Y74029D01*
X940247Y74065D01*
X940090Y74106D01*
X940056Y74107D01*
X940024Y74115D01*
X939863Y74117D01*
X939701Y74125D01*
X939668Y74120D01*
X939634Y74121D01*
X939476Y74090D01*
X939315Y74065D01*
X939284Y74053D01*
X939252Y74047D01*
X939102Y73985D01*
X938951Y73928D01*
X938922Y73910D01*
X938892Y73897D01*
X938758Y73806D01*
X938621Y73719D01*
X938597Y73696D01*
X938570Y73677D01*
X938458Y73560D01*
X938341Y73448D01*
X938323Y73420D01*
X938300Y73396D01*
X938258Y73324D01*
X938123Y73125D01*
X938077Y73015D01*
X938041Y72952D01*
X936723Y69770D01*
X933530Y66577D01*
X929358Y64849D01*
X924842Y64849D01*
X920670Y66577D01*
X917477Y69770D01*
X916159Y72952D01*
X916143Y72982D01*
X916133Y73013D01*
X916051Y73153D01*
X915974Y73295D01*
X915953Y73321D01*
X915936Y73349D01*
X915827Y73470D01*
X915723Y73593D01*
X915697Y73614D01*
X915674Y73639D01*
X915543Y73734D01*
X915416Y73834D01*
X915387Y73849D01*
X915360Y73868D01*
X915212Y73935D01*
X915067Y74007D01*
X915035Y74016D01*
X915004Y74029D01*
X914847Y74065D01*
X914690Y74106D01*
X914656Y74107D01*
X914624Y74115D01*
X914463Y74117D01*
X914301Y74125D01*
X914268Y74120D01*
X914234Y74121D01*
X914076Y74090D01*
X913915Y74065D01*
X913884Y74053D01*
X913852Y74047D01*
X913702Y73985D01*
X913551Y73928D01*
X913522Y73910D01*
X913492Y73897D01*
X913358Y73806D01*
X913221Y73719D01*
X913197Y73696D01*
X913170Y73677D01*
X913058Y73560D01*
X912941Y73448D01*
X912923Y73420D01*
X912900Y73396D01*
X912858Y73324D01*
X912723Y73125D01*
X912677Y73015D01*
X912641Y72952D01*
X911323Y69770D01*
X908130Y66577D01*
X903958Y64849D01*
X899442Y64849D01*
X895270Y66577D01*
X892077Y69770D01*
X890759Y72952D01*
X890743Y72982D01*
X890733Y73013D01*
X890651Y73153D01*
X890574Y73295D01*
X890553Y73321D01*
X890536Y73349D01*
X890427Y73470D01*
X890323Y73593D01*
X890297Y73614D01*
X890274Y73639D01*
X890143Y73734D01*
X890016Y73834D01*
X889987Y73849D01*
X889960Y73868D01*
X889812Y73935D01*
X889667Y74007D01*
X889635Y74016D01*
X889604Y74029D01*
X889447Y74065D01*
X889290Y74106D01*
X889256Y74107D01*
X889224Y74115D01*
X889063Y74117D01*
X888901Y74125D01*
X888868Y74120D01*
X888834Y74121D01*
X888676Y74090D01*
X888515Y74065D01*
X888484Y74053D01*
X888452Y74047D01*
X888302Y73985D01*
X888151Y73928D01*
X888122Y73910D01*
X888092Y73897D01*
X887958Y73806D01*
X887821Y73719D01*
X887797Y73696D01*
X887770Y73677D01*
X887658Y73560D01*
X887541Y73448D01*
X887523Y73420D01*
X887500Y73396D01*
X887458Y73324D01*
X887323Y73125D01*
X887277Y73015D01*
X887241Y72952D01*
X885923Y69770D01*
X882730Y66577D01*
X878558Y64849D01*
X874042Y64849D01*
G37*
%LPD*%
%LPC*%
G36*
X1293107Y187578D02*
X1293107Y187578D01*
X1286991Y190111D01*
X1282311Y194791D01*
X1279778Y200907D01*
X1279778Y207525D01*
X1282311Y213641D01*
X1286991Y218321D01*
X1293107Y220854D01*
X1299725Y220854D01*
X1300767Y220422D01*
X1300862Y220394D01*
X1300955Y220356D01*
X1301049Y220338D01*
X1301141Y220311D01*
X1301240Y220302D01*
X1301338Y220284D01*
X1301434Y220286D01*
X1301529Y220278D01*
X1301628Y220289D01*
X1301728Y220291D01*
X1301798Y220310D01*
X1301916Y220324D01*
X1302144Y220401D01*
X1302225Y220422D01*
X1303267Y220854D01*
X1309885Y220854D01*
X1316001Y218321D01*
X1320681Y213641D01*
X1323214Y207525D01*
X1323214Y200907D01*
X1320681Y194791D01*
X1316001Y190111D01*
X1309885Y187578D01*
X1303267Y187578D01*
X1302225Y188010D01*
X1302129Y188038D01*
X1302037Y188076D01*
X1301943Y188094D01*
X1301851Y188121D01*
X1301752Y188130D01*
X1301654Y188148D01*
X1301558Y188146D01*
X1301463Y188154D01*
X1301364Y188143D01*
X1301264Y188141D01*
X1301194Y188122D01*
X1301076Y188108D01*
X1300848Y188031D01*
X1300767Y188010D01*
X1299725Y187578D01*
X1293107Y187578D01*
G37*
%LPD*%
%LPC*%
G36*
X670842Y64849D02*
X670842Y64849D01*
X666670Y66577D01*
X663477Y69770D01*
X661749Y73942D01*
X661749Y78458D01*
X663477Y82630D01*
X666670Y85823D01*
X670842Y87551D01*
X675358Y87551D01*
X679530Y85823D01*
X682723Y82630D01*
X684041Y79448D01*
X684057Y79418D01*
X684067Y79387D01*
X684149Y79248D01*
X684226Y79105D01*
X684247Y79079D01*
X684264Y79051D01*
X684372Y78931D01*
X684477Y78807D01*
X684503Y78786D01*
X684526Y78761D01*
X684656Y78666D01*
X684784Y78566D01*
X684814Y78551D01*
X684840Y78532D01*
X684988Y78465D01*
X685133Y78393D01*
X685165Y78384D01*
X685195Y78371D01*
X685353Y78335D01*
X685510Y78294D01*
X685543Y78293D01*
X685576Y78285D01*
X685737Y78283D01*
X685899Y78275D01*
X685932Y78280D01*
X685966Y78279D01*
X686124Y78310D01*
X686285Y78335D01*
X686316Y78347D01*
X686348Y78353D01*
X686498Y78415D01*
X686649Y78472D01*
X686677Y78490D01*
X686708Y78503D01*
X686842Y78594D01*
X686979Y78681D01*
X687003Y78704D01*
X687030Y78723D01*
X687142Y78839D01*
X687258Y78952D01*
X687277Y78980D01*
X687300Y79004D01*
X687342Y79076D01*
X687477Y79275D01*
X687522Y79384D01*
X687559Y79448D01*
X688877Y82630D01*
X692070Y85823D01*
X696242Y87551D01*
X700758Y87551D01*
X704930Y85823D01*
X708123Y82630D01*
X709851Y78458D01*
X709851Y73942D01*
X708123Y69770D01*
X704930Y66577D01*
X700758Y64849D01*
X696242Y64849D01*
X692070Y66577D01*
X688877Y69770D01*
X687559Y72952D01*
X687543Y72982D01*
X687533Y73013D01*
X687451Y73153D01*
X687374Y73295D01*
X687353Y73321D01*
X687336Y73349D01*
X687227Y73470D01*
X687123Y73593D01*
X687097Y73614D01*
X687074Y73639D01*
X686943Y73734D01*
X686816Y73834D01*
X686787Y73849D01*
X686760Y73868D01*
X686612Y73935D01*
X686467Y74007D01*
X686435Y74016D01*
X686404Y74029D01*
X686247Y74065D01*
X686090Y74106D01*
X686056Y74107D01*
X686024Y74115D01*
X685863Y74117D01*
X685701Y74125D01*
X685668Y74120D01*
X685634Y74121D01*
X685476Y74090D01*
X685315Y74065D01*
X685284Y74053D01*
X685252Y74047D01*
X685102Y73985D01*
X684951Y73928D01*
X684922Y73910D01*
X684892Y73897D01*
X684758Y73806D01*
X684621Y73719D01*
X684597Y73696D01*
X684570Y73677D01*
X684458Y73560D01*
X684341Y73448D01*
X684323Y73420D01*
X684300Y73396D01*
X684258Y73324D01*
X684123Y73125D01*
X684077Y73015D01*
X684041Y72952D01*
X682723Y69770D01*
X679530Y66577D01*
X675358Y64849D01*
X670842Y64849D01*
G37*
%LPD*%
%LPC*%
G36*
X810542Y928449D02*
X810542Y928449D01*
X806370Y930177D01*
X803177Y933370D01*
X801449Y937542D01*
X801449Y942058D01*
X803177Y946230D01*
X806370Y949423D01*
X810542Y951151D01*
X815058Y951151D01*
X819230Y949423D01*
X822423Y946230D01*
X823741Y943048D01*
X823757Y943018D01*
X823767Y942987D01*
X823849Y942847D01*
X823926Y942705D01*
X823947Y942679D01*
X823964Y942651D01*
X824073Y942530D01*
X824177Y942407D01*
X824203Y942386D01*
X824226Y942361D01*
X824357Y942266D01*
X824484Y942166D01*
X824514Y942151D01*
X824540Y942132D01*
X824688Y942065D01*
X824833Y941993D01*
X824865Y941984D01*
X824895Y941971D01*
X825053Y941935D01*
X825210Y941894D01*
X825243Y941893D01*
X825276Y941885D01*
X825437Y941883D01*
X825599Y941875D01*
X825632Y941880D01*
X825666Y941879D01*
X825824Y941910D01*
X825985Y941935D01*
X826016Y941947D01*
X826048Y941953D01*
X826198Y942015D01*
X826349Y942072D01*
X826377Y942090D01*
X826408Y942103D01*
X826542Y942194D01*
X826679Y942281D01*
X826703Y942304D01*
X826730Y942323D01*
X826842Y942439D01*
X826958Y942552D01*
X826977Y942580D01*
X827000Y942604D01*
X827042Y942676D01*
X827177Y942875D01*
X827222Y942984D01*
X827259Y943048D01*
X828577Y946230D01*
X831770Y949423D01*
X835942Y951151D01*
X840458Y951151D01*
X844630Y949423D01*
X847823Y946230D01*
X849551Y942058D01*
X849551Y937542D01*
X847823Y933370D01*
X844630Y930177D01*
X840458Y928449D01*
X835942Y928449D01*
X831770Y930177D01*
X828577Y933370D01*
X827259Y936552D01*
X827243Y936582D01*
X827233Y936613D01*
X827151Y936753D01*
X827074Y936895D01*
X827053Y936921D01*
X827036Y936949D01*
X826927Y937070D01*
X826823Y937193D01*
X826797Y937214D01*
X826774Y937239D01*
X826644Y937334D01*
X826516Y937434D01*
X826486Y937449D01*
X826460Y937468D01*
X826312Y937535D01*
X826167Y937607D01*
X826135Y937616D01*
X826104Y937629D01*
X825947Y937665D01*
X825790Y937706D01*
X825756Y937707D01*
X825724Y937715D01*
X825563Y937717D01*
X825401Y937725D01*
X825368Y937720D01*
X825334Y937721D01*
X825175Y937690D01*
X825015Y937665D01*
X824984Y937653D01*
X824952Y937647D01*
X824802Y937585D01*
X824651Y937528D01*
X824622Y937510D01*
X824592Y937497D01*
X824458Y937406D01*
X824321Y937319D01*
X824297Y937296D01*
X824270Y937277D01*
X824158Y937160D01*
X824041Y937048D01*
X824023Y937020D01*
X824000Y936996D01*
X823958Y936924D01*
X823823Y936725D01*
X823777Y936615D01*
X823741Y936552D01*
X822423Y933370D01*
X819230Y930177D01*
X815058Y928449D01*
X810542Y928449D01*
G37*
%LPD*%
%LPC*%
G36*
X1272253Y652404D02*
X1272253Y652404D01*
X1268285Y654048D01*
X1265248Y657085D01*
X1263604Y661053D01*
X1263604Y665347D01*
X1265248Y669315D01*
X1268285Y672352D01*
X1272253Y673996D01*
X1276547Y673996D01*
X1280515Y672352D01*
X1283552Y669315D01*
X1285196Y665347D01*
X1285196Y661053D01*
X1283552Y657085D01*
X1280515Y654048D01*
X1276547Y652404D01*
X1272253Y652404D01*
G37*
%LPD*%
%LPC*%
G36*
X1246853Y652404D02*
X1246853Y652404D01*
X1242885Y654048D01*
X1239848Y657085D01*
X1238204Y661053D01*
X1238204Y665347D01*
X1239848Y669315D01*
X1242885Y672352D01*
X1246853Y673996D01*
X1251147Y673996D01*
X1255115Y672352D01*
X1258152Y669315D01*
X1259796Y665347D01*
X1259796Y661053D01*
X1258152Y657085D01*
X1255115Y654048D01*
X1251147Y652404D01*
X1246853Y652404D01*
G37*
%LPD*%
%LPC*%
G36*
X1221453Y652404D02*
X1221453Y652404D01*
X1217485Y654048D01*
X1214448Y657085D01*
X1212804Y661053D01*
X1212804Y665347D01*
X1214448Y669315D01*
X1217485Y672352D01*
X1221453Y673996D01*
X1225747Y673996D01*
X1229715Y672352D01*
X1232752Y669315D01*
X1234396Y665347D01*
X1234396Y661053D01*
X1232752Y657085D01*
X1229715Y654048D01*
X1225747Y652404D01*
X1221453Y652404D01*
G37*
%LPD*%
%LPC*%
G36*
X1196053Y652404D02*
X1196053Y652404D01*
X1192085Y654048D01*
X1189048Y657085D01*
X1187404Y661053D01*
X1187404Y665347D01*
X1189048Y669315D01*
X1192085Y672352D01*
X1196053Y673996D01*
X1200347Y673996D01*
X1204315Y672352D01*
X1207352Y669315D01*
X1208996Y665347D01*
X1208996Y661053D01*
X1207352Y657085D01*
X1204315Y654048D01*
X1200347Y652404D01*
X1196053Y652404D01*
G37*
%LPD*%
%LPC*%
G36*
X1170653Y652404D02*
X1170653Y652404D01*
X1166685Y654048D01*
X1163648Y657085D01*
X1162004Y661053D01*
X1162004Y665347D01*
X1163648Y669315D01*
X1166685Y672352D01*
X1170653Y673996D01*
X1174947Y673996D01*
X1178915Y672352D01*
X1181952Y669315D01*
X1183596Y665347D01*
X1183596Y661053D01*
X1181952Y657085D01*
X1178915Y654048D01*
X1174947Y652404D01*
X1170653Y652404D01*
G37*
%LPD*%
%LPC*%
G36*
X1145253Y652404D02*
X1145253Y652404D01*
X1141285Y654048D01*
X1138248Y657085D01*
X1136604Y661053D01*
X1136604Y665347D01*
X1138248Y669315D01*
X1141285Y672352D01*
X1145253Y673996D01*
X1149547Y673996D01*
X1153515Y672352D01*
X1156552Y669315D01*
X1158196Y665347D01*
X1158196Y661053D01*
X1156552Y657085D01*
X1153515Y654048D01*
X1149547Y652404D01*
X1145253Y652404D01*
G37*
%LPD*%
%LPC*%
G36*
X1119853Y652404D02*
X1119853Y652404D01*
X1115885Y654048D01*
X1112848Y657085D01*
X1111204Y661053D01*
X1111204Y665347D01*
X1112848Y669315D01*
X1115885Y672352D01*
X1119853Y673996D01*
X1124147Y673996D01*
X1128115Y672352D01*
X1131152Y669315D01*
X1132796Y665347D01*
X1132796Y661053D01*
X1131152Y657085D01*
X1128115Y654048D01*
X1124147Y652404D01*
X1119853Y652404D01*
G37*
%LPD*%
%LPC*%
G36*
X1069053Y652404D02*
X1069053Y652404D01*
X1065085Y654048D01*
X1062048Y657085D01*
X1060404Y661053D01*
X1060404Y665347D01*
X1062048Y669315D01*
X1065085Y672352D01*
X1069053Y673996D01*
X1073347Y673996D01*
X1077315Y672352D01*
X1080352Y669315D01*
X1081996Y665347D01*
X1081996Y661053D01*
X1080352Y657085D01*
X1077315Y654048D01*
X1073347Y652404D01*
X1069053Y652404D01*
G37*
%LPD*%
%LPC*%
G36*
X1043653Y652404D02*
X1043653Y652404D01*
X1039685Y654048D01*
X1036648Y657085D01*
X1035004Y661053D01*
X1035004Y665347D01*
X1036648Y669315D01*
X1039685Y672352D01*
X1043653Y673996D01*
X1047947Y673996D01*
X1051915Y672352D01*
X1054952Y669315D01*
X1056596Y665347D01*
X1056596Y661053D01*
X1054952Y657085D01*
X1051915Y654048D01*
X1047947Y652404D01*
X1043653Y652404D01*
G37*
%LPD*%
%LPC*%
G36*
X1018253Y652404D02*
X1018253Y652404D01*
X1014285Y654048D01*
X1011248Y657085D01*
X1009604Y661053D01*
X1009604Y665347D01*
X1011248Y669315D01*
X1014285Y672352D01*
X1018253Y673996D01*
X1022547Y673996D01*
X1026515Y672352D01*
X1029552Y669315D01*
X1031196Y665347D01*
X1031196Y661053D01*
X1029552Y657085D01*
X1026515Y654048D01*
X1022547Y652404D01*
X1018253Y652404D01*
G37*
%LPD*%
%LPC*%
G36*
X992853Y652404D02*
X992853Y652404D01*
X988885Y654048D01*
X985848Y657085D01*
X984204Y661053D01*
X984204Y665347D01*
X985848Y669315D01*
X988885Y672352D01*
X992853Y673996D01*
X997147Y673996D01*
X1001115Y672352D01*
X1004152Y669315D01*
X1005796Y665347D01*
X1005796Y661053D01*
X1004152Y657085D01*
X1001115Y654048D01*
X997147Y652404D01*
X992853Y652404D01*
G37*
%LPD*%
%LPC*%
G36*
X967453Y652404D02*
X967453Y652404D01*
X963485Y654048D01*
X960448Y657085D01*
X958804Y661053D01*
X958804Y665347D01*
X960448Y669315D01*
X963485Y672352D01*
X967453Y673996D01*
X971747Y673996D01*
X975715Y672352D01*
X978752Y669315D01*
X980396Y665347D01*
X980396Y661053D01*
X978752Y657085D01*
X975715Y654048D01*
X971747Y652404D01*
X967453Y652404D01*
G37*
%LPD*%
%LPC*%
G36*
X942053Y652404D02*
X942053Y652404D01*
X938085Y654048D01*
X935048Y657085D01*
X933404Y661053D01*
X933404Y665347D01*
X935048Y669315D01*
X938085Y672352D01*
X942053Y673996D01*
X946347Y673996D01*
X950315Y672352D01*
X953352Y669315D01*
X954996Y665347D01*
X954996Y661053D01*
X953352Y657085D01*
X950315Y654048D01*
X946347Y652404D01*
X942053Y652404D01*
G37*
%LPD*%
%LPC*%
G36*
X916653Y652404D02*
X916653Y652404D01*
X912685Y654048D01*
X909648Y657085D01*
X908004Y661053D01*
X908004Y665347D01*
X909648Y669315D01*
X912685Y672352D01*
X916653Y673996D01*
X920947Y673996D01*
X924915Y672352D01*
X927952Y669315D01*
X929596Y665347D01*
X929596Y661053D01*
X927952Y657085D01*
X924915Y654048D01*
X920947Y652404D01*
X916653Y652404D01*
G37*
%LPD*%
%LPC*%
G36*
X891253Y652404D02*
X891253Y652404D01*
X887285Y654048D01*
X884248Y657085D01*
X882604Y661053D01*
X882604Y665347D01*
X884248Y669315D01*
X887285Y672352D01*
X891253Y673996D01*
X895547Y673996D01*
X899515Y672352D01*
X902552Y669315D01*
X904196Y665347D01*
X904196Y661053D01*
X902552Y657085D01*
X899515Y654048D01*
X895547Y652404D01*
X891253Y652404D01*
G37*
%LPD*%
%LPC*%
G36*
X865853Y652404D02*
X865853Y652404D01*
X861885Y654048D01*
X858848Y657085D01*
X857204Y661053D01*
X857204Y665347D01*
X858848Y669315D01*
X861885Y672352D01*
X865853Y673996D01*
X870147Y673996D01*
X874115Y672352D01*
X877152Y669315D01*
X878796Y665347D01*
X878796Y661053D01*
X877152Y657085D01*
X874115Y654048D01*
X870147Y652404D01*
X865853Y652404D01*
G37*
%LPD*%
%LPC*%
G36*
X840453Y373004D02*
X840453Y373004D01*
X836485Y374648D01*
X833448Y377685D01*
X831804Y381653D01*
X831804Y385947D01*
X833448Y389915D01*
X836485Y392952D01*
X840453Y394596D01*
X844747Y394596D01*
X848715Y392952D01*
X851752Y389915D01*
X853396Y385947D01*
X853396Y381653D01*
X851752Y377685D01*
X848715Y374648D01*
X844747Y373004D01*
X840453Y373004D01*
G37*
%LPD*%
%LPC*%
G36*
X865853Y373004D02*
X865853Y373004D01*
X861885Y374648D01*
X858848Y377685D01*
X857204Y381653D01*
X857204Y385947D01*
X858848Y389915D01*
X861885Y392952D01*
X865853Y394596D01*
X870147Y394596D01*
X874115Y392952D01*
X877152Y389915D01*
X878796Y385947D01*
X878796Y381653D01*
X877152Y377685D01*
X874115Y374648D01*
X870147Y373004D01*
X865853Y373004D01*
G37*
%LPD*%
%LPC*%
G36*
X891253Y373004D02*
X891253Y373004D01*
X887285Y374648D01*
X884248Y377685D01*
X882604Y381653D01*
X882604Y385947D01*
X884248Y389915D01*
X887285Y392952D01*
X891253Y394596D01*
X895547Y394596D01*
X899515Y392952D01*
X902552Y389915D01*
X904196Y385947D01*
X904196Y381653D01*
X902552Y377685D01*
X899515Y374648D01*
X895547Y373004D01*
X891253Y373004D01*
G37*
%LPD*%
%LPC*%
G36*
X1119853Y627004D02*
X1119853Y627004D01*
X1115885Y628648D01*
X1112848Y631685D01*
X1111204Y635653D01*
X1111204Y639947D01*
X1112848Y643915D01*
X1115885Y646952D01*
X1119853Y648596D01*
X1124147Y648596D01*
X1128115Y646952D01*
X1131152Y643915D01*
X1132796Y639947D01*
X1132796Y635653D01*
X1131152Y631685D01*
X1128115Y628648D01*
X1124147Y627004D01*
X1119853Y627004D01*
G37*
%LPD*%
%LPC*%
G36*
X1069053Y627004D02*
X1069053Y627004D01*
X1065085Y628648D01*
X1062048Y631685D01*
X1060404Y635653D01*
X1060404Y639947D01*
X1062048Y643915D01*
X1065085Y646952D01*
X1069053Y648596D01*
X1073347Y648596D01*
X1077315Y646952D01*
X1080352Y643915D01*
X1081996Y639947D01*
X1081996Y635653D01*
X1080352Y631685D01*
X1077315Y628648D01*
X1073347Y627004D01*
X1069053Y627004D01*
G37*
%LPD*%
%LPC*%
G36*
X1043653Y627004D02*
X1043653Y627004D01*
X1039685Y628648D01*
X1036648Y631685D01*
X1035004Y635653D01*
X1035004Y639947D01*
X1036648Y643915D01*
X1039685Y646952D01*
X1043653Y648596D01*
X1047947Y648596D01*
X1051915Y646952D01*
X1054952Y643915D01*
X1056596Y639947D01*
X1056596Y635653D01*
X1054952Y631685D01*
X1051915Y628648D01*
X1047947Y627004D01*
X1043653Y627004D01*
G37*
%LPD*%
%LPC*%
G36*
X992853Y627004D02*
X992853Y627004D01*
X988885Y628648D01*
X985848Y631685D01*
X984204Y635653D01*
X984204Y639947D01*
X985848Y643915D01*
X988885Y646952D01*
X992853Y648596D01*
X997147Y648596D01*
X1001115Y646952D01*
X1004152Y643915D01*
X1005796Y639947D01*
X1005796Y635653D01*
X1004152Y631685D01*
X1001115Y628648D01*
X997147Y627004D01*
X992853Y627004D01*
G37*
%LPD*%
%LPC*%
G36*
X967453Y627004D02*
X967453Y627004D01*
X963485Y628648D01*
X960448Y631685D01*
X958804Y635653D01*
X958804Y639947D01*
X960448Y643915D01*
X963485Y646952D01*
X967453Y648596D01*
X971747Y648596D01*
X975715Y646952D01*
X978752Y643915D01*
X980396Y639947D01*
X980396Y635653D01*
X978752Y631685D01*
X975715Y628648D01*
X971747Y627004D01*
X967453Y627004D01*
G37*
%LPD*%
%LPC*%
G36*
X942053Y627004D02*
X942053Y627004D01*
X938085Y628648D01*
X935048Y631685D01*
X933404Y635653D01*
X933404Y639947D01*
X935048Y643915D01*
X938085Y646952D01*
X942053Y648596D01*
X946347Y648596D01*
X950315Y646952D01*
X953352Y643915D01*
X954996Y639947D01*
X954996Y635653D01*
X953352Y631685D01*
X950315Y628648D01*
X946347Y627004D01*
X942053Y627004D01*
G37*
%LPD*%
%LPC*%
G36*
X916653Y627004D02*
X916653Y627004D01*
X912685Y628648D01*
X909648Y631685D01*
X908004Y635653D01*
X908004Y639947D01*
X909648Y643915D01*
X912685Y646952D01*
X916653Y648596D01*
X920947Y648596D01*
X924915Y646952D01*
X927952Y643915D01*
X929596Y639947D01*
X929596Y635653D01*
X927952Y631685D01*
X924915Y628648D01*
X920947Y627004D01*
X916653Y627004D01*
G37*
%LPD*%
%LPC*%
G36*
X891253Y627004D02*
X891253Y627004D01*
X887285Y628648D01*
X884248Y631685D01*
X882604Y635653D01*
X882604Y639947D01*
X884248Y643915D01*
X887285Y646952D01*
X891253Y648596D01*
X895547Y648596D01*
X899515Y646952D01*
X902552Y643915D01*
X904196Y639947D01*
X904196Y635653D01*
X902552Y631685D01*
X899515Y628648D01*
X895547Y627004D01*
X891253Y627004D01*
G37*
%LPD*%
%LPC*%
G36*
X865853Y627004D02*
X865853Y627004D01*
X861885Y628648D01*
X858848Y631685D01*
X857204Y635653D01*
X857204Y639947D01*
X858848Y643915D01*
X861885Y646952D01*
X865853Y648596D01*
X870147Y648596D01*
X874115Y646952D01*
X877152Y643915D01*
X878796Y639947D01*
X878796Y635653D01*
X877152Y631685D01*
X874115Y628648D01*
X870147Y627004D01*
X865853Y627004D01*
G37*
%LPD*%
%LPC*%
G36*
X840453Y627004D02*
X840453Y627004D01*
X836485Y628648D01*
X833448Y631685D01*
X831804Y635653D01*
X831804Y639947D01*
X833448Y643915D01*
X836485Y646952D01*
X840453Y648596D01*
X844747Y648596D01*
X848715Y646952D01*
X851752Y643915D01*
X853396Y639947D01*
X853396Y635653D01*
X851752Y631685D01*
X848715Y628648D01*
X844747Y627004D01*
X840453Y627004D01*
G37*
%LPD*%
%LPC*%
G36*
X1272253Y627004D02*
X1272253Y627004D01*
X1268285Y628648D01*
X1265248Y631685D01*
X1263604Y635653D01*
X1263604Y639947D01*
X1265248Y643915D01*
X1268285Y646952D01*
X1272253Y648596D01*
X1276547Y648596D01*
X1280515Y646952D01*
X1283552Y643915D01*
X1285196Y639947D01*
X1285196Y635653D01*
X1283552Y631685D01*
X1280515Y628648D01*
X1276547Y627004D01*
X1272253Y627004D01*
G37*
%LPD*%
%LPC*%
G36*
X1246853Y627004D02*
X1246853Y627004D01*
X1242885Y628648D01*
X1239848Y631685D01*
X1238204Y635653D01*
X1238204Y639947D01*
X1239848Y643915D01*
X1242885Y646952D01*
X1246853Y648596D01*
X1251147Y648596D01*
X1255115Y646952D01*
X1258152Y643915D01*
X1259796Y639947D01*
X1259796Y635653D01*
X1258152Y631685D01*
X1255115Y628648D01*
X1251147Y627004D01*
X1246853Y627004D01*
G37*
%LPD*%
%LPC*%
G36*
X1221453Y627004D02*
X1221453Y627004D01*
X1217485Y628648D01*
X1214448Y631685D01*
X1212804Y635653D01*
X1212804Y639947D01*
X1214448Y643915D01*
X1217485Y646952D01*
X1221453Y648596D01*
X1225747Y648596D01*
X1229715Y646952D01*
X1232752Y643915D01*
X1234396Y639947D01*
X1234396Y635653D01*
X1232752Y631685D01*
X1229715Y628648D01*
X1225747Y627004D01*
X1221453Y627004D01*
G37*
%LPD*%
%LPC*%
G36*
X1196053Y627004D02*
X1196053Y627004D01*
X1192085Y628648D01*
X1189048Y631685D01*
X1187404Y635653D01*
X1187404Y639947D01*
X1189048Y643915D01*
X1192085Y646952D01*
X1196053Y648596D01*
X1200347Y648596D01*
X1204315Y646952D01*
X1207352Y643915D01*
X1208996Y639947D01*
X1208996Y635653D01*
X1207352Y631685D01*
X1204315Y628648D01*
X1200347Y627004D01*
X1196053Y627004D01*
G37*
%LPD*%
%LPC*%
G36*
X1170653Y627004D02*
X1170653Y627004D01*
X1166685Y628648D01*
X1163648Y631685D01*
X1162004Y635653D01*
X1162004Y639947D01*
X1163648Y643915D01*
X1166685Y646952D01*
X1170653Y648596D01*
X1174947Y648596D01*
X1178915Y646952D01*
X1181952Y643915D01*
X1183596Y639947D01*
X1183596Y635653D01*
X1181952Y631685D01*
X1178915Y628648D01*
X1174947Y627004D01*
X1170653Y627004D01*
G37*
%LPD*%
%LPC*%
G36*
X1145253Y627004D02*
X1145253Y627004D01*
X1141285Y628648D01*
X1138248Y631685D01*
X1136604Y635653D01*
X1136604Y639947D01*
X1138248Y643915D01*
X1141285Y646952D01*
X1145253Y648596D01*
X1149547Y648596D01*
X1153515Y646952D01*
X1156552Y643915D01*
X1158196Y639947D01*
X1158196Y635653D01*
X1156552Y631685D01*
X1153515Y628648D01*
X1149547Y627004D01*
X1145253Y627004D01*
G37*
%LPD*%
%LPC*%
G36*
X916653Y373004D02*
X916653Y373004D01*
X912685Y374648D01*
X909648Y377685D01*
X908004Y381653D01*
X908004Y385947D01*
X909648Y389915D01*
X912685Y392952D01*
X916653Y394596D01*
X920947Y394596D01*
X924915Y392952D01*
X927952Y389915D01*
X929596Y385947D01*
X929596Y381653D01*
X927952Y377685D01*
X924915Y374648D01*
X920947Y373004D01*
X916653Y373004D01*
G37*
%LPD*%
%LPC*%
G36*
X942053Y373004D02*
X942053Y373004D01*
X938085Y374648D01*
X935048Y377685D01*
X933404Y381653D01*
X933404Y385947D01*
X935048Y389915D01*
X938085Y392952D01*
X942053Y394596D01*
X946347Y394596D01*
X950315Y392952D01*
X953352Y389915D01*
X954996Y385947D01*
X954996Y381653D01*
X953352Y377685D01*
X950315Y374648D01*
X946347Y373004D01*
X942053Y373004D01*
G37*
%LPD*%
%LPC*%
G36*
X967453Y373004D02*
X967453Y373004D01*
X963485Y374648D01*
X960448Y377685D01*
X958804Y381653D01*
X958804Y385947D01*
X960448Y389915D01*
X963485Y392952D01*
X967453Y394596D01*
X971747Y394596D01*
X975715Y392952D01*
X978752Y389915D01*
X980396Y385947D01*
X980396Y381653D01*
X978752Y377685D01*
X975715Y374648D01*
X971747Y373004D01*
X967453Y373004D01*
G37*
%LPD*%
%LPC*%
G36*
X992853Y373004D02*
X992853Y373004D01*
X988885Y374648D01*
X985848Y377685D01*
X984204Y381653D01*
X984204Y385947D01*
X985848Y389915D01*
X988885Y392952D01*
X992853Y394596D01*
X997147Y394596D01*
X1001115Y392952D01*
X1004152Y389915D01*
X1005796Y385947D01*
X1005796Y381653D01*
X1004152Y377685D01*
X1001115Y374648D01*
X997147Y373004D01*
X992853Y373004D01*
G37*
%LPD*%
%LPC*%
G36*
X1018253Y373004D02*
X1018253Y373004D01*
X1014285Y374648D01*
X1011248Y377685D01*
X1009604Y381653D01*
X1009604Y385947D01*
X1011248Y389915D01*
X1014285Y392952D01*
X1018253Y394596D01*
X1022547Y394596D01*
X1026515Y392952D01*
X1029552Y389915D01*
X1031196Y385947D01*
X1031196Y381653D01*
X1029552Y377685D01*
X1026515Y374648D01*
X1022547Y373004D01*
X1018253Y373004D01*
G37*
%LPD*%
%LPC*%
G36*
X1043653Y373004D02*
X1043653Y373004D01*
X1039685Y374648D01*
X1036648Y377685D01*
X1035004Y381653D01*
X1035004Y385947D01*
X1036648Y389915D01*
X1039685Y392952D01*
X1043653Y394596D01*
X1047947Y394596D01*
X1051915Y392952D01*
X1054952Y389915D01*
X1056596Y385947D01*
X1056596Y381653D01*
X1054952Y377685D01*
X1051915Y374648D01*
X1047947Y373004D01*
X1043653Y373004D01*
G37*
%LPD*%
%LPC*%
G36*
X1069053Y373004D02*
X1069053Y373004D01*
X1065085Y374648D01*
X1062048Y377685D01*
X1060404Y381653D01*
X1060404Y385947D01*
X1062048Y389915D01*
X1065085Y392952D01*
X1069053Y394596D01*
X1073347Y394596D01*
X1077315Y392952D01*
X1080352Y389915D01*
X1081996Y385947D01*
X1081996Y381653D01*
X1080352Y377685D01*
X1077315Y374648D01*
X1073347Y373004D01*
X1069053Y373004D01*
G37*
%LPD*%
%LPC*%
G36*
X840453Y652404D02*
X840453Y652404D01*
X836485Y654048D01*
X833448Y657085D01*
X831804Y661053D01*
X831804Y665347D01*
X833448Y669315D01*
X836485Y672352D01*
X840453Y673996D01*
X844747Y673996D01*
X848715Y672352D01*
X851752Y669315D01*
X853396Y665347D01*
X853396Y661053D01*
X851752Y657085D01*
X848715Y654048D01*
X844747Y652404D01*
X840453Y652404D01*
G37*
%LPD*%
%LPC*%
G36*
X891253Y398404D02*
X891253Y398404D01*
X887285Y400048D01*
X884248Y403085D01*
X882604Y407053D01*
X882604Y411347D01*
X884248Y415315D01*
X887285Y418352D01*
X891253Y419996D01*
X895547Y419996D01*
X899515Y418352D01*
X902552Y415315D01*
X904196Y411347D01*
X904196Y407053D01*
X902552Y403085D01*
X899515Y400048D01*
X895547Y398404D01*
X891253Y398404D01*
G37*
%LPD*%
%LPC*%
G36*
X967453Y398404D02*
X967453Y398404D01*
X963485Y400048D01*
X960448Y403085D01*
X958804Y407053D01*
X958804Y411347D01*
X960448Y415315D01*
X963485Y418352D01*
X967453Y419996D01*
X971747Y419996D01*
X975715Y418352D01*
X978752Y415315D01*
X980396Y411347D01*
X980396Y407053D01*
X978752Y403085D01*
X975715Y400048D01*
X971747Y398404D01*
X967453Y398404D01*
G37*
%LPD*%
%LPC*%
G36*
X992853Y398404D02*
X992853Y398404D01*
X988885Y400048D01*
X985848Y403085D01*
X984204Y407053D01*
X984204Y411347D01*
X985848Y415315D01*
X988885Y418352D01*
X992853Y419996D01*
X997147Y419996D01*
X1001115Y418352D01*
X1004152Y415315D01*
X1005796Y411347D01*
X1005796Y407053D01*
X1004152Y403085D01*
X1001115Y400048D01*
X997147Y398404D01*
X992853Y398404D01*
G37*
%LPD*%
%LPC*%
G36*
X1043653Y398404D02*
X1043653Y398404D01*
X1039685Y400048D01*
X1036648Y403085D01*
X1035004Y407053D01*
X1035004Y411347D01*
X1036648Y415315D01*
X1039685Y418352D01*
X1043653Y419996D01*
X1047947Y419996D01*
X1051915Y418352D01*
X1054952Y415315D01*
X1056596Y411347D01*
X1056596Y407053D01*
X1054952Y403085D01*
X1051915Y400048D01*
X1047947Y398404D01*
X1043653Y398404D01*
G37*
%LPD*%
%LPC*%
G36*
X1069053Y398404D02*
X1069053Y398404D01*
X1065085Y400048D01*
X1062048Y403085D01*
X1060404Y407053D01*
X1060404Y411347D01*
X1062048Y415315D01*
X1065085Y418352D01*
X1069053Y419996D01*
X1073347Y419996D01*
X1077315Y418352D01*
X1080352Y415315D01*
X1081996Y411347D01*
X1081996Y407053D01*
X1080352Y403085D01*
X1077315Y400048D01*
X1073347Y398404D01*
X1069053Y398404D01*
G37*
%LPD*%
%LPC*%
G36*
X1196053Y398404D02*
X1196053Y398404D01*
X1192085Y400048D01*
X1189048Y403085D01*
X1187404Y407053D01*
X1187404Y411347D01*
X1189048Y415315D01*
X1192085Y418352D01*
X1196053Y419996D01*
X1200347Y419996D01*
X1204315Y418352D01*
X1207352Y415315D01*
X1208996Y411347D01*
X1208996Y407053D01*
X1207352Y403085D01*
X1204315Y400048D01*
X1200347Y398404D01*
X1196053Y398404D01*
G37*
%LPD*%
%LPC*%
G36*
X840453Y398404D02*
X840453Y398404D01*
X836485Y400048D01*
X833448Y403085D01*
X831804Y407053D01*
X831804Y411347D01*
X833448Y415315D01*
X836485Y418352D01*
X840453Y419996D01*
X844747Y419996D01*
X848715Y418352D01*
X851752Y415315D01*
X853396Y411347D01*
X853396Y407053D01*
X851752Y403085D01*
X848715Y400048D01*
X844747Y398404D01*
X840453Y398404D01*
G37*
%LPD*%
%LPC*%
G36*
X865853Y398404D02*
X865853Y398404D01*
X861885Y400048D01*
X858848Y403085D01*
X857204Y407053D01*
X857204Y411347D01*
X858848Y415315D01*
X861885Y418352D01*
X865853Y419996D01*
X870147Y419996D01*
X874115Y418352D01*
X877152Y415315D01*
X878796Y411347D01*
X878796Y407053D01*
X877152Y403085D01*
X874115Y400048D01*
X870147Y398404D01*
X865853Y398404D01*
G37*
%LPD*%
%LPC*%
G36*
X1119853Y398404D02*
X1119853Y398404D01*
X1115885Y400048D01*
X1112848Y403085D01*
X1111204Y407053D01*
X1111204Y411347D01*
X1112848Y415315D01*
X1115885Y418352D01*
X1119853Y419996D01*
X1124147Y419996D01*
X1128115Y418352D01*
X1131152Y415315D01*
X1132796Y411347D01*
X1132796Y407053D01*
X1131152Y403085D01*
X1128115Y400048D01*
X1124147Y398404D01*
X1119853Y398404D01*
G37*
%LPD*%
%LPC*%
G36*
X916653Y398404D02*
X916653Y398404D01*
X912685Y400048D01*
X909648Y403085D01*
X908004Y407053D01*
X908004Y411347D01*
X909648Y415315D01*
X912685Y418352D01*
X916653Y419996D01*
X920947Y419996D01*
X924915Y418352D01*
X927952Y415315D01*
X929596Y411347D01*
X929596Y407053D01*
X927952Y403085D01*
X924915Y400048D01*
X920947Y398404D01*
X916653Y398404D01*
G37*
%LPD*%
%LPC*%
G36*
X1272253Y398404D02*
X1272253Y398404D01*
X1268285Y400048D01*
X1265248Y403085D01*
X1263604Y407053D01*
X1263604Y411347D01*
X1265248Y415315D01*
X1268285Y418352D01*
X1272253Y419996D01*
X1276547Y419996D01*
X1280515Y418352D01*
X1283552Y415315D01*
X1285196Y411347D01*
X1285196Y407053D01*
X1283552Y403085D01*
X1280515Y400048D01*
X1276547Y398404D01*
X1272253Y398404D01*
G37*
%LPD*%
%LPC*%
G36*
X1246853Y398404D02*
X1246853Y398404D01*
X1242885Y400048D01*
X1239848Y403085D01*
X1238204Y407053D01*
X1238204Y411347D01*
X1239848Y415315D01*
X1242885Y418352D01*
X1246853Y419996D01*
X1251147Y419996D01*
X1255115Y418352D01*
X1258152Y415315D01*
X1259796Y411347D01*
X1259796Y407053D01*
X1258152Y403085D01*
X1255115Y400048D01*
X1251147Y398404D01*
X1246853Y398404D01*
G37*
%LPD*%
%LPC*%
G36*
X1221453Y398404D02*
X1221453Y398404D01*
X1217485Y400048D01*
X1214448Y403085D01*
X1212804Y407053D01*
X1212804Y411347D01*
X1214448Y415315D01*
X1217485Y418352D01*
X1221453Y419996D01*
X1225747Y419996D01*
X1229715Y418352D01*
X1232752Y415315D01*
X1234396Y411347D01*
X1234396Y407053D01*
X1232752Y403085D01*
X1229715Y400048D01*
X1225747Y398404D01*
X1221453Y398404D01*
G37*
%LPD*%
%LPC*%
G36*
X942053Y398404D02*
X942053Y398404D01*
X938085Y400048D01*
X935048Y403085D01*
X933404Y407053D01*
X933404Y411347D01*
X935048Y415315D01*
X938085Y418352D01*
X942053Y419996D01*
X946347Y419996D01*
X950315Y418352D01*
X953352Y415315D01*
X954996Y411347D01*
X954996Y407053D01*
X953352Y403085D01*
X950315Y400048D01*
X946347Y398404D01*
X942053Y398404D01*
G37*
%LPD*%
%LPC*%
G36*
X1170653Y398404D02*
X1170653Y398404D01*
X1166685Y400048D01*
X1163648Y403085D01*
X1162004Y407053D01*
X1162004Y411347D01*
X1163648Y415315D01*
X1166685Y418352D01*
X1170653Y419996D01*
X1174947Y419996D01*
X1178915Y418352D01*
X1181952Y415315D01*
X1183596Y411347D01*
X1183596Y407053D01*
X1181952Y403085D01*
X1178915Y400048D01*
X1174947Y398404D01*
X1170653Y398404D01*
G37*
%LPD*%
%LPC*%
G36*
X1145253Y398404D02*
X1145253Y398404D01*
X1141285Y400048D01*
X1138248Y403085D01*
X1136604Y407053D01*
X1136604Y411347D01*
X1138248Y415315D01*
X1141285Y418352D01*
X1145253Y419996D01*
X1149547Y419996D01*
X1153515Y418352D01*
X1156552Y415315D01*
X1158196Y411347D01*
X1158196Y407053D01*
X1156552Y403085D01*
X1153515Y400048D01*
X1149547Y398404D01*
X1145253Y398404D01*
G37*
%LPD*%
%LPC*%
G36*
X1094453Y373004D02*
X1094453Y373004D01*
X1090485Y374648D01*
X1087448Y377685D01*
X1085804Y381653D01*
X1085804Y385947D01*
X1087448Y389915D01*
X1090485Y392952D01*
X1094453Y394596D01*
X1098747Y394596D01*
X1102715Y392952D01*
X1105752Y389915D01*
X1107396Y385947D01*
X1107396Y381653D01*
X1105752Y377685D01*
X1102715Y374648D01*
X1098747Y373004D01*
X1094453Y373004D01*
G37*
%LPD*%
%LPC*%
G36*
X1119853Y373004D02*
X1119853Y373004D01*
X1115885Y374648D01*
X1112848Y377685D01*
X1111204Y381653D01*
X1111204Y385947D01*
X1112848Y389915D01*
X1115885Y392952D01*
X1119853Y394596D01*
X1124147Y394596D01*
X1128115Y392952D01*
X1131152Y389915D01*
X1132796Y385947D01*
X1132796Y381653D01*
X1131152Y377685D01*
X1128115Y374648D01*
X1124147Y373004D01*
X1119853Y373004D01*
G37*
%LPD*%
%LPC*%
G36*
X1145253Y373004D02*
X1145253Y373004D01*
X1141285Y374648D01*
X1138248Y377685D01*
X1136604Y381653D01*
X1136604Y385947D01*
X1138248Y389915D01*
X1141285Y392952D01*
X1145253Y394596D01*
X1149547Y394596D01*
X1153515Y392952D01*
X1156552Y389915D01*
X1158196Y385947D01*
X1158196Y381653D01*
X1156552Y377685D01*
X1153515Y374648D01*
X1149547Y373004D01*
X1145253Y373004D01*
G37*
%LPD*%
%LPC*%
G36*
X1170653Y373004D02*
X1170653Y373004D01*
X1166685Y374648D01*
X1163648Y377685D01*
X1162004Y381653D01*
X1162004Y385947D01*
X1163648Y389915D01*
X1166685Y392952D01*
X1170653Y394596D01*
X1174947Y394596D01*
X1178915Y392952D01*
X1181952Y389915D01*
X1183596Y385947D01*
X1183596Y381653D01*
X1181952Y377685D01*
X1178915Y374648D01*
X1174947Y373004D01*
X1170653Y373004D01*
G37*
%LPD*%
%LPC*%
G36*
X1246853Y373004D02*
X1246853Y373004D01*
X1242885Y374648D01*
X1239848Y377685D01*
X1238204Y381653D01*
X1238204Y385947D01*
X1239848Y389915D01*
X1242885Y392952D01*
X1246853Y394596D01*
X1251147Y394596D01*
X1255115Y392952D01*
X1258152Y389915D01*
X1259796Y385947D01*
X1259796Y381653D01*
X1258152Y377685D01*
X1255115Y374648D01*
X1251147Y373004D01*
X1246853Y373004D01*
G37*
%LPD*%
%LPC*%
G36*
X1272253Y373004D02*
X1272253Y373004D01*
X1268285Y374648D01*
X1265248Y377685D01*
X1263604Y381653D01*
X1263604Y385947D01*
X1265248Y389915D01*
X1268285Y392952D01*
X1272253Y394596D01*
X1276547Y394596D01*
X1280515Y392952D01*
X1283552Y389915D01*
X1285196Y385947D01*
X1285196Y381653D01*
X1283552Y377685D01*
X1280515Y374648D01*
X1276547Y373004D01*
X1272253Y373004D01*
G37*
%LPD*%
%LPC*%
G36*
X1196053Y373004D02*
X1196053Y373004D01*
X1192085Y374648D01*
X1189048Y377685D01*
X1187404Y381653D01*
X1187404Y385947D01*
X1189048Y389915D01*
X1192085Y392952D01*
X1196053Y394596D01*
X1200347Y394596D01*
X1204315Y392952D01*
X1207352Y389915D01*
X1208996Y385947D01*
X1208996Y381653D01*
X1207352Y377685D01*
X1204315Y374648D01*
X1200347Y373004D01*
X1196053Y373004D01*
G37*
%LPD*%
%LPC*%
G36*
X1221453Y373004D02*
X1221453Y373004D01*
X1217485Y374648D01*
X1214448Y377685D01*
X1212804Y381653D01*
X1212804Y385947D01*
X1214448Y389915D01*
X1217485Y392952D01*
X1221453Y394596D01*
X1225747Y394596D01*
X1229715Y392952D01*
X1232752Y389915D01*
X1234396Y385947D01*
X1234396Y381653D01*
X1232752Y377685D01*
X1229715Y374648D01*
X1225747Y373004D01*
X1221453Y373004D01*
G37*
%LPD*%
%LPC*%
G36*
X789899Y942299D02*
X789899Y942299D01*
X789899Y949587D01*
X791270Y949142D01*
X792684Y948422D01*
X793967Y947489D01*
X795089Y946367D01*
X796022Y945084D01*
X796742Y943670D01*
X797187Y942299D01*
X789899Y942299D01*
G37*
%LPD*%
%LPC*%
G36*
X789899Y937301D02*
X789899Y937301D01*
X797187Y937301D01*
X796742Y935930D01*
X796022Y934516D01*
X795089Y933233D01*
X793967Y932111D01*
X792684Y931178D01*
X791270Y930458D01*
X789899Y930013D01*
X789899Y937301D01*
G37*
%LPD*%
%LPC*%
G36*
X777613Y942299D02*
X777613Y942299D01*
X778058Y943670D01*
X778778Y945084D01*
X779711Y946367D01*
X780833Y947489D01*
X782116Y948422D01*
X783530Y949142D01*
X784901Y949587D01*
X784901Y942299D01*
X777613Y942299D01*
G37*
%LPD*%
%LPC*%
G36*
X783530Y930458D02*
X783530Y930458D01*
X782116Y931178D01*
X780833Y932111D01*
X779711Y933233D01*
X778778Y934516D01*
X778058Y935930D01*
X777613Y937301D01*
X784901Y937301D01*
X784901Y930013D01*
X783530Y930458D01*
G37*
%LPD*%
%LPC*%
G36*
X1098822Y665422D02*
X1098822Y665422D01*
X1098822Y672493D01*
X1098831Y672491D01*
X1100257Y672028D01*
X1101593Y671347D01*
X1102806Y670466D01*
X1103866Y669406D01*
X1104747Y668193D01*
X1105428Y666857D01*
X1105891Y665431D01*
X1105893Y665422D01*
X1098822Y665422D01*
G37*
%LPD*%
%LPC*%
G36*
X1098822Y640022D02*
X1098822Y640022D01*
X1098822Y647093D01*
X1098831Y647091D01*
X1100257Y646628D01*
X1101593Y645947D01*
X1102806Y645066D01*
X1103866Y644006D01*
X1104747Y642793D01*
X1105428Y641457D01*
X1105891Y640031D01*
X1105893Y640022D01*
X1098822Y640022D01*
G37*
%LPD*%
%LPC*%
G36*
X1022622Y411422D02*
X1022622Y411422D01*
X1022622Y418493D01*
X1022631Y418491D01*
X1024057Y418028D01*
X1025393Y417347D01*
X1026606Y416466D01*
X1027666Y415406D01*
X1028547Y414193D01*
X1029228Y412857D01*
X1029691Y411431D01*
X1029693Y411422D01*
X1022622Y411422D01*
G37*
%LPD*%
%LPC*%
G36*
X1297622Y236918D02*
X1297622Y236918D01*
X1297622Y243989D01*
X1297631Y243987D01*
X1299057Y243524D01*
X1300393Y242843D01*
X1301606Y241962D01*
X1302666Y240902D01*
X1303547Y239689D01*
X1304228Y238353D01*
X1304691Y236927D01*
X1304693Y236918D01*
X1297622Y236918D01*
G37*
%LPD*%
%LPC*%
G36*
X1022622Y640022D02*
X1022622Y640022D01*
X1022622Y647093D01*
X1022631Y647091D01*
X1024057Y646628D01*
X1025393Y645947D01*
X1026606Y645066D01*
X1027666Y644006D01*
X1028547Y642793D01*
X1029228Y641457D01*
X1029691Y640031D01*
X1029693Y640022D01*
X1022622Y640022D01*
G37*
%LPD*%
%LPC*%
G36*
X1098822Y411422D02*
X1098822Y411422D01*
X1098822Y418493D01*
X1098831Y418491D01*
X1100257Y418028D01*
X1101593Y417347D01*
X1102806Y416466D01*
X1103866Y415406D01*
X1104747Y414193D01*
X1105428Y412857D01*
X1105891Y411431D01*
X1105893Y411422D01*
X1098822Y411422D01*
G37*
%LPD*%
%LPC*%
G36*
X1098822Y635578D02*
X1098822Y635578D01*
X1105893Y635578D01*
X1105891Y635569D01*
X1105428Y634143D01*
X1104747Y632807D01*
X1103866Y631594D01*
X1102806Y630534D01*
X1101593Y629653D01*
X1100257Y628972D01*
X1098831Y628509D01*
X1098822Y628507D01*
X1098822Y635578D01*
G37*
%LPD*%
%LPC*%
G36*
X1087307Y640022D02*
X1087307Y640022D01*
X1087309Y640031D01*
X1087772Y641457D01*
X1088453Y642793D01*
X1089334Y644006D01*
X1090394Y645066D01*
X1091607Y645947D01*
X1092943Y646628D01*
X1094369Y647091D01*
X1094378Y647093D01*
X1094378Y640022D01*
X1087307Y640022D01*
G37*
%LPD*%
%LPC*%
G36*
X1022622Y635578D02*
X1022622Y635578D01*
X1029693Y635578D01*
X1029691Y635569D01*
X1029228Y634143D01*
X1028547Y632807D01*
X1027666Y631594D01*
X1026606Y630534D01*
X1025393Y629653D01*
X1024057Y628972D01*
X1022631Y628509D01*
X1022622Y628507D01*
X1022622Y635578D01*
G37*
%LPD*%
%LPC*%
G36*
X1011107Y640022D02*
X1011107Y640022D01*
X1011109Y640031D01*
X1011572Y641457D01*
X1012253Y642793D01*
X1013134Y644006D01*
X1014194Y645066D01*
X1015407Y645947D01*
X1016743Y646628D01*
X1018169Y647091D01*
X1018178Y647093D01*
X1018178Y640022D01*
X1011107Y640022D01*
G37*
%LPD*%
%LPC*%
G36*
X1087307Y411422D02*
X1087307Y411422D01*
X1087309Y411431D01*
X1087772Y412857D01*
X1088453Y414193D01*
X1089334Y415406D01*
X1090394Y416466D01*
X1091607Y417347D01*
X1092943Y418028D01*
X1094369Y418491D01*
X1094378Y418493D01*
X1094378Y411422D01*
X1087307Y411422D01*
G37*
%LPD*%
%LPC*%
G36*
X1011107Y411422D02*
X1011107Y411422D01*
X1011109Y411431D01*
X1011572Y412857D01*
X1012253Y414193D01*
X1013134Y415406D01*
X1014194Y416466D01*
X1015407Y417347D01*
X1016743Y418028D01*
X1018169Y418491D01*
X1018178Y418493D01*
X1018178Y411422D01*
X1011107Y411422D01*
G37*
%LPD*%
%LPC*%
G36*
X1098822Y660978D02*
X1098822Y660978D01*
X1105893Y660978D01*
X1105891Y660969D01*
X1105428Y659543D01*
X1104747Y658207D01*
X1103866Y656994D01*
X1102806Y655934D01*
X1101593Y655053D01*
X1100257Y654372D01*
X1098831Y653909D01*
X1098822Y653907D01*
X1098822Y660978D01*
G37*
%LPD*%
%LPC*%
G36*
X1098822Y406978D02*
X1098822Y406978D01*
X1105893Y406978D01*
X1105891Y406969D01*
X1105428Y405543D01*
X1104747Y404207D01*
X1103866Y402994D01*
X1102806Y401934D01*
X1101593Y401053D01*
X1100257Y400372D01*
X1098831Y399909D01*
X1098822Y399907D01*
X1098822Y406978D01*
G37*
%LPD*%
%LPC*%
G36*
X1087307Y665422D02*
X1087307Y665422D01*
X1087309Y665431D01*
X1087772Y666857D01*
X1088453Y668193D01*
X1089334Y669406D01*
X1090394Y670466D01*
X1091607Y671347D01*
X1092943Y672028D01*
X1094369Y672491D01*
X1094378Y672493D01*
X1094378Y665422D01*
X1087307Y665422D01*
G37*
%LPD*%
%LPC*%
G36*
X1286107Y236918D02*
X1286107Y236918D01*
X1286109Y236927D01*
X1286572Y238353D01*
X1287253Y239689D01*
X1288134Y240902D01*
X1289194Y241962D01*
X1290407Y242843D01*
X1291743Y243524D01*
X1293169Y243987D01*
X1293178Y243989D01*
X1293178Y236918D01*
X1286107Y236918D01*
G37*
%LPD*%
%LPC*%
G36*
X1022622Y406978D02*
X1022622Y406978D01*
X1029693Y406978D01*
X1029691Y406969D01*
X1029228Y405543D01*
X1028547Y404207D01*
X1027666Y402994D01*
X1026606Y401934D01*
X1025393Y401053D01*
X1024057Y400372D01*
X1022631Y399909D01*
X1022622Y399907D01*
X1022622Y406978D01*
G37*
%LPD*%
%LPC*%
G36*
X1297622Y232474D02*
X1297622Y232474D01*
X1304693Y232474D01*
X1304691Y232465D01*
X1304228Y231039D01*
X1303547Y229703D01*
X1302666Y228490D01*
X1301606Y227430D01*
X1300393Y226549D01*
X1299057Y225868D01*
X1297631Y225405D01*
X1297622Y225403D01*
X1297622Y232474D01*
G37*
%LPD*%
%LPC*%
G36*
X1293169Y225405D02*
X1293169Y225405D01*
X1291743Y225868D01*
X1290407Y226549D01*
X1289194Y227430D01*
X1288134Y228490D01*
X1287253Y229703D01*
X1286572Y231039D01*
X1286109Y232465D01*
X1286107Y232474D01*
X1293178Y232474D01*
X1293178Y225403D01*
X1293169Y225405D01*
G37*
%LPD*%
%LPC*%
G36*
X1094369Y653909D02*
X1094369Y653909D01*
X1092943Y654372D01*
X1091607Y655053D01*
X1090394Y655934D01*
X1089334Y656994D01*
X1088453Y658207D01*
X1087772Y659543D01*
X1087309Y660969D01*
X1087307Y660978D01*
X1094378Y660978D01*
X1094378Y653907D01*
X1094369Y653909D01*
G37*
%LPD*%
%LPC*%
G36*
X1018169Y399909D02*
X1018169Y399909D01*
X1016743Y400372D01*
X1015407Y401053D01*
X1014194Y401934D01*
X1013134Y402994D01*
X1012253Y404207D01*
X1011572Y405543D01*
X1011109Y406969D01*
X1011107Y406978D01*
X1018178Y406978D01*
X1018178Y399907D01*
X1018169Y399909D01*
G37*
%LPD*%
%LPC*%
G36*
X1094369Y628509D02*
X1094369Y628509D01*
X1092943Y628972D01*
X1091607Y629653D01*
X1090394Y630534D01*
X1089334Y631594D01*
X1088453Y632807D01*
X1087772Y634143D01*
X1087309Y635569D01*
X1087307Y635578D01*
X1094378Y635578D01*
X1094378Y628507D01*
X1094369Y628509D01*
G37*
%LPD*%
%LPC*%
G36*
X1094369Y399909D02*
X1094369Y399909D01*
X1092943Y400372D01*
X1091607Y401053D01*
X1090394Y401934D01*
X1089334Y402994D01*
X1088453Y404207D01*
X1087772Y405543D01*
X1087309Y406969D01*
X1087307Y406978D01*
X1094378Y406978D01*
X1094378Y399907D01*
X1094369Y399909D01*
G37*
%LPD*%
%LPC*%
G36*
X1018169Y628509D02*
X1018169Y628509D01*
X1016743Y628972D01*
X1015407Y629653D01*
X1014194Y630534D01*
X1013134Y631594D01*
X1012253Y632807D01*
X1011572Y634143D01*
X1011109Y635569D01*
X1011107Y635578D01*
X1018178Y635578D01*
X1018178Y628507D01*
X1018169Y628509D01*
G37*
%LPD*%
D10*
X1320800Y965200D03*
X50800Y965200D03*
X50800Y50800D03*
X1320800Y50800D03*
D11*
X1274400Y663200D03*
X1274400Y637800D03*
X1249000Y663200D03*
X1249000Y637800D03*
X1223600Y663200D03*
X1223600Y637800D03*
X1198200Y663200D03*
X1198200Y637800D03*
X1172800Y663200D03*
X1172800Y637800D03*
X1147400Y663200D03*
X1147400Y637800D03*
X1122000Y663200D03*
X1122000Y637800D03*
X1096600Y663200D03*
X1096600Y637800D03*
X1071200Y663200D03*
X1071200Y637800D03*
X1045800Y663200D03*
X1045800Y637800D03*
X1020400Y663200D03*
X1020400Y637800D03*
X995000Y663200D03*
X995000Y637800D03*
X969600Y663200D03*
X969600Y637800D03*
X944200Y663200D03*
X944200Y637800D03*
X918800Y663200D03*
X918800Y637800D03*
X893400Y663200D03*
X893400Y637800D03*
X868000Y663200D03*
X868000Y637800D03*
X842600Y663200D03*
X842600Y637800D03*
X1274400Y409200D03*
X1274400Y383800D03*
X1249000Y409200D03*
X1249000Y383800D03*
X1223600Y409200D03*
X1223600Y383800D03*
X1198200Y409200D03*
X1198200Y383800D03*
X1172800Y409200D03*
X1172800Y383800D03*
X1147400Y409200D03*
X1147400Y383800D03*
X1122000Y409200D03*
X1122000Y383800D03*
X1096600Y409200D03*
X1096600Y383800D03*
X1071200Y409200D03*
X1071200Y383800D03*
X1045800Y409200D03*
X1045800Y383800D03*
X1020400Y409200D03*
X1020400Y383800D03*
X995000Y409200D03*
X995000Y383800D03*
X969600Y409200D03*
X969600Y383800D03*
X944200Y409200D03*
X944200Y383800D03*
X918800Y409200D03*
X918800Y383800D03*
X893400Y409200D03*
X893400Y383800D03*
X868000Y409200D03*
X868000Y383800D03*
X842600Y409200D03*
X842600Y383800D03*
D12*
X673100Y76200D03*
X698500Y76200D03*
X876300Y76200D03*
X901700Y76200D03*
X927100Y76200D03*
X952500Y76200D03*
X469900Y939800D03*
X495300Y939800D03*
X520700Y939800D03*
X546100Y939800D03*
X571500Y939800D03*
X596900Y939800D03*
X622300Y939800D03*
X647700Y939800D03*
X787400Y939800D03*
X812800Y939800D03*
X838200Y939800D03*
D11*
X1295400Y304800D03*
X1295400Y279908D03*
X1295400Y259842D03*
X1295400Y234696D03*
D13*
X1301496Y204216D03*
X1350264Y269748D03*
X1301496Y335534D03*
M02*
