G04 EAGLE Gerber RS-274X export*
G75*
%MOMM*%
%FSLAX34Y34*%
%LPD*%
%IN*%
%IPPOS*%
%AMOC8*
5,1,8,0,0,1.08239X$1,22.5*%
G01*
%ADD10C,0.254000*%


D10*
X0Y0D02*
X1371600Y0D01*
X1371600Y1016000D01*
X0Y1016000D01*
X0Y0D01*
X1306258Y329057D02*
X1305624Y329119D01*
X1305000Y329244D01*
X1304391Y329428D01*
X1303803Y329672D01*
X1303242Y329972D01*
X1302713Y330325D01*
X1302221Y330729D01*
X1301771Y331179D01*
X1301367Y331671D01*
X1301014Y332200D01*
X1300714Y332761D01*
X1300470Y333349D01*
X1300286Y333958D01*
X1300161Y334582D01*
X1300099Y335216D01*
X1300099Y335852D01*
X1300161Y336486D01*
X1300286Y337110D01*
X1300470Y337719D01*
X1300714Y338307D01*
X1301014Y338868D01*
X1301367Y339397D01*
X1301771Y339889D01*
X1302221Y340339D01*
X1302713Y340743D01*
X1303242Y341096D01*
X1303803Y341396D01*
X1304391Y341640D01*
X1305000Y341824D01*
X1305624Y341949D01*
X1306258Y342011D01*
X1306894Y342011D01*
X1307528Y341949D01*
X1308152Y341824D01*
X1308761Y341640D01*
X1309349Y341396D01*
X1309910Y341096D01*
X1310439Y340743D01*
X1310931Y340339D01*
X1311381Y339889D01*
X1311785Y339397D01*
X1312138Y338868D01*
X1312438Y338307D01*
X1312682Y337719D01*
X1312866Y337110D01*
X1312991Y336486D01*
X1313053Y335852D01*
X1313053Y335216D01*
X1312991Y334582D01*
X1312866Y333958D01*
X1312682Y333349D01*
X1312438Y332761D01*
X1312138Y332200D01*
X1311785Y331671D01*
X1311381Y331179D01*
X1310931Y330729D01*
X1310439Y330325D01*
X1309910Y329972D01*
X1309349Y329672D01*
X1308761Y329428D01*
X1308152Y329244D01*
X1307528Y329119D01*
X1306894Y329057D01*
X1306258Y329057D01*
X1296098Y329057D02*
X1295464Y329119D01*
X1294840Y329244D01*
X1294231Y329428D01*
X1293643Y329672D01*
X1293082Y329972D01*
X1292553Y330325D01*
X1292061Y330729D01*
X1291611Y331179D01*
X1291207Y331671D01*
X1290854Y332200D01*
X1290554Y332761D01*
X1290310Y333349D01*
X1290126Y333958D01*
X1290001Y334582D01*
X1289939Y335216D01*
X1289939Y335852D01*
X1290001Y336486D01*
X1290126Y337110D01*
X1290310Y337719D01*
X1290554Y338307D01*
X1290854Y338868D01*
X1291207Y339397D01*
X1291611Y339889D01*
X1292061Y340339D01*
X1292553Y340743D01*
X1293082Y341096D01*
X1293643Y341396D01*
X1294231Y341640D01*
X1294840Y341824D01*
X1295464Y341949D01*
X1296098Y342011D01*
X1296734Y342011D01*
X1297368Y341949D01*
X1297992Y341824D01*
X1298601Y341640D01*
X1299189Y341396D01*
X1299750Y341096D01*
X1300279Y340743D01*
X1300771Y340339D01*
X1301221Y339889D01*
X1301625Y339397D01*
X1301978Y338868D01*
X1302278Y338307D01*
X1302522Y337719D01*
X1302706Y337110D01*
X1302831Y336486D01*
X1302893Y335852D01*
X1302893Y335216D01*
X1302831Y334582D01*
X1302706Y333958D01*
X1302522Y333349D01*
X1302278Y332761D01*
X1301978Y332200D01*
X1301625Y331671D01*
X1301221Y331179D01*
X1300771Y330729D01*
X1300279Y330325D01*
X1299750Y329972D01*
X1299189Y329672D01*
X1298601Y329428D01*
X1297992Y329244D01*
X1297368Y329119D01*
X1296734Y329057D01*
X1296098Y329057D01*
X1349946Y258191D02*
X1349312Y258253D01*
X1348688Y258378D01*
X1348079Y258562D01*
X1347491Y258806D01*
X1346930Y259106D01*
X1346401Y259459D01*
X1345909Y259863D01*
X1345459Y260313D01*
X1345055Y260805D01*
X1344702Y261334D01*
X1344402Y261895D01*
X1344158Y262483D01*
X1343974Y263092D01*
X1343849Y263716D01*
X1343787Y264350D01*
X1343787Y264986D01*
X1343849Y265620D01*
X1343974Y266244D01*
X1344158Y266853D01*
X1344402Y267441D01*
X1344702Y268002D01*
X1345055Y268531D01*
X1345459Y269023D01*
X1345909Y269473D01*
X1346401Y269877D01*
X1346930Y270230D01*
X1347491Y270530D01*
X1348079Y270774D01*
X1348688Y270958D01*
X1349312Y271083D01*
X1349946Y271145D01*
X1350582Y271145D01*
X1351216Y271083D01*
X1351840Y270958D01*
X1352449Y270774D01*
X1353037Y270530D01*
X1353598Y270230D01*
X1354127Y269877D01*
X1354619Y269473D01*
X1355069Y269023D01*
X1355473Y268531D01*
X1355826Y268002D01*
X1356126Y267441D01*
X1356370Y266853D01*
X1356554Y266244D01*
X1356679Y265620D01*
X1356741Y264986D01*
X1356741Y264350D01*
X1356679Y263716D01*
X1356554Y263092D01*
X1356370Y262483D01*
X1356126Y261895D01*
X1355826Y261334D01*
X1355473Y260805D01*
X1355069Y260313D01*
X1354619Y259863D01*
X1354127Y259459D01*
X1353598Y259106D01*
X1353037Y258806D01*
X1352449Y258562D01*
X1351840Y258378D01*
X1351216Y258253D01*
X1350582Y258191D01*
X1349946Y258191D01*
X1349946Y268351D02*
X1349312Y268413D01*
X1348688Y268538D01*
X1348079Y268722D01*
X1347491Y268966D01*
X1346930Y269266D01*
X1346401Y269619D01*
X1345909Y270023D01*
X1345459Y270473D01*
X1345055Y270965D01*
X1344702Y271494D01*
X1344402Y272055D01*
X1344158Y272643D01*
X1343974Y273252D01*
X1343849Y273876D01*
X1343787Y274510D01*
X1343787Y275146D01*
X1343849Y275780D01*
X1343974Y276404D01*
X1344158Y277013D01*
X1344402Y277601D01*
X1344702Y278162D01*
X1345055Y278691D01*
X1345459Y279183D01*
X1345909Y279633D01*
X1346401Y280037D01*
X1346930Y280390D01*
X1347491Y280690D01*
X1348079Y280934D01*
X1348688Y281118D01*
X1349312Y281243D01*
X1349946Y281305D01*
X1350582Y281305D01*
X1351216Y281243D01*
X1351840Y281118D01*
X1352449Y280934D01*
X1353037Y280690D01*
X1353598Y280390D01*
X1354127Y280037D01*
X1354619Y279633D01*
X1355069Y279183D01*
X1355473Y278691D01*
X1355826Y278162D01*
X1356126Y277601D01*
X1356370Y277013D01*
X1356554Y276404D01*
X1356679Y275780D01*
X1356741Y275146D01*
X1356741Y274510D01*
X1356679Y273876D01*
X1356554Y273252D01*
X1356370Y272643D01*
X1356126Y272055D01*
X1355826Y271494D01*
X1355473Y270965D01*
X1355069Y270473D01*
X1354619Y270023D01*
X1354127Y269619D01*
X1353598Y269266D01*
X1353037Y268966D01*
X1352449Y268722D01*
X1351840Y268538D01*
X1351216Y268413D01*
X1350582Y268351D01*
X1349946Y268351D01*
X1306258Y197739D02*
X1305624Y197801D01*
X1305000Y197926D01*
X1304391Y198110D01*
X1303803Y198354D01*
X1303242Y198654D01*
X1302713Y199007D01*
X1302221Y199411D01*
X1301771Y199861D01*
X1301367Y200353D01*
X1301014Y200882D01*
X1300714Y201443D01*
X1300470Y202031D01*
X1300286Y202640D01*
X1300161Y203264D01*
X1300099Y203898D01*
X1300099Y204534D01*
X1300161Y205168D01*
X1300286Y205792D01*
X1300470Y206401D01*
X1300714Y206989D01*
X1301014Y207550D01*
X1301367Y208079D01*
X1301771Y208571D01*
X1302221Y209021D01*
X1302713Y209425D01*
X1303242Y209778D01*
X1303803Y210078D01*
X1304391Y210322D01*
X1305000Y210506D01*
X1305624Y210631D01*
X1306258Y210693D01*
X1306894Y210693D01*
X1307528Y210631D01*
X1308152Y210506D01*
X1308761Y210322D01*
X1309349Y210078D01*
X1309910Y209778D01*
X1310439Y209425D01*
X1310931Y209021D01*
X1311381Y208571D01*
X1311785Y208079D01*
X1312138Y207550D01*
X1312438Y206989D01*
X1312682Y206401D01*
X1312866Y205792D01*
X1312991Y205168D01*
X1313053Y204534D01*
X1313053Y203898D01*
X1312991Y203264D01*
X1312866Y202640D01*
X1312682Y202031D01*
X1312438Y201443D01*
X1312138Y200882D01*
X1311785Y200353D01*
X1311381Y199861D01*
X1310931Y199411D01*
X1310439Y199007D01*
X1309910Y198654D01*
X1309349Y198354D01*
X1308761Y198110D01*
X1308152Y197926D01*
X1307528Y197801D01*
X1306894Y197739D01*
X1306258Y197739D01*
X1296098Y197739D02*
X1295464Y197801D01*
X1294840Y197926D01*
X1294231Y198110D01*
X1293643Y198354D01*
X1293082Y198654D01*
X1292553Y199007D01*
X1292061Y199411D01*
X1291611Y199861D01*
X1291207Y200353D01*
X1290854Y200882D01*
X1290554Y201443D01*
X1290310Y202031D01*
X1290126Y202640D01*
X1290001Y203264D01*
X1289939Y203898D01*
X1289939Y204534D01*
X1290001Y205168D01*
X1290126Y205792D01*
X1290310Y206401D01*
X1290554Y206989D01*
X1290854Y207550D01*
X1291207Y208079D01*
X1291611Y208571D01*
X1292061Y209021D01*
X1292553Y209425D01*
X1293082Y209778D01*
X1293643Y210078D01*
X1294231Y210322D01*
X1294840Y210506D01*
X1295464Y210631D01*
X1296098Y210693D01*
X1296734Y210693D01*
X1297368Y210631D01*
X1297992Y210506D01*
X1298601Y210322D01*
X1299189Y210078D01*
X1299750Y209778D01*
X1300279Y209425D01*
X1300771Y209021D01*
X1301221Y208571D01*
X1301625Y208079D01*
X1301978Y207550D01*
X1302278Y206989D01*
X1302522Y206401D01*
X1302706Y205792D01*
X1302831Y205168D01*
X1302893Y204534D01*
X1302893Y203898D01*
X1302831Y203264D01*
X1302706Y202640D01*
X1302522Y202031D01*
X1302278Y201443D01*
X1301978Y200882D01*
X1301625Y200353D01*
X1301221Y199861D01*
X1300771Y199411D01*
X1300279Y199007D01*
X1299750Y198654D01*
X1299189Y198354D01*
X1298601Y198110D01*
X1297992Y197926D01*
X1297368Y197801D01*
X1296734Y197739D01*
X1296098Y197739D01*
M02*
