G04 EAGLE Gerber RS-274X export*
G75*
%MOMM*%
%FSLAX34Y34*%
%LPD*%
%INSoldermask Top*%
%IPPOS*%
%AMOC8*
5,1,8,0,0,1.08239X$1,22.5*%
G01*
%ADD10C,4.648200*%
%ADD11R,1.346200X1.473200*%
%ADD12R,1.727200X1.727200*%
%ADD13P,1.869504X8X202.500000*%
%ADD14R,1.303200X1.203200*%
%ADD15C,1.711200*%
%ADD16C,1.600200*%
%ADD17C,2.108200*%
%ADD18C,1.498600*%


D10*
X1320800Y965200D03*
X50800Y965200D03*
X50800Y50800D03*
X1320800Y50800D03*
D11*
X1007110Y901700D03*
X1024890Y901700D03*
D12*
X1274400Y663200D03*
D13*
X1274400Y637800D03*
X1249000Y663200D03*
X1249000Y637800D03*
X1223600Y663200D03*
X1223600Y637800D03*
X1198200Y663200D03*
X1198200Y637800D03*
X1172800Y663200D03*
X1172800Y637800D03*
X1147400Y663200D03*
X1147400Y637800D03*
X1122000Y663200D03*
X1122000Y637800D03*
X1096600Y663200D03*
X1096600Y637800D03*
X1071200Y663200D03*
X1071200Y637800D03*
X1045800Y663200D03*
X1045800Y637800D03*
X1020400Y663200D03*
X1020400Y637800D03*
X995000Y663200D03*
X995000Y637800D03*
X969600Y663200D03*
X969600Y637800D03*
X944200Y663200D03*
X944200Y637800D03*
X918800Y663200D03*
X918800Y637800D03*
X893400Y663200D03*
X893400Y637800D03*
X868000Y663200D03*
X868000Y637800D03*
X842600Y663200D03*
X842600Y637800D03*
D12*
X1274400Y409200D03*
D13*
X1274400Y383800D03*
X1249000Y409200D03*
X1249000Y383800D03*
X1223600Y409200D03*
X1223600Y383800D03*
X1198200Y409200D03*
X1198200Y383800D03*
X1172800Y409200D03*
X1172800Y383800D03*
X1147400Y409200D03*
X1147400Y383800D03*
X1122000Y409200D03*
X1122000Y383800D03*
X1096600Y409200D03*
X1096600Y383800D03*
X1071200Y409200D03*
X1071200Y383800D03*
X1045800Y409200D03*
X1045800Y383800D03*
X1020400Y409200D03*
X1020400Y383800D03*
X995000Y409200D03*
X995000Y383800D03*
X969600Y409200D03*
X969600Y383800D03*
X944200Y409200D03*
X944200Y383800D03*
X918800Y409200D03*
X918800Y383800D03*
X893400Y409200D03*
X893400Y383800D03*
X868000Y409200D03*
X868000Y383800D03*
X842600Y409200D03*
X842600Y383800D03*
D14*
X1126100Y889000D03*
X1109100Y889000D03*
X1126100Y939800D03*
X1109100Y939800D03*
D15*
X673100Y83740D02*
X673100Y68660D01*
X698500Y68660D02*
X698500Y83740D01*
X876300Y83740D02*
X876300Y68660D01*
X901700Y68660D02*
X901700Y83740D01*
X927100Y83740D02*
X927100Y68660D01*
X952500Y68660D02*
X952500Y83740D01*
X469900Y932260D02*
X469900Y947340D01*
X495300Y947340D02*
X495300Y932260D01*
X520700Y932260D02*
X520700Y947340D01*
X546100Y947340D02*
X546100Y932260D01*
X571500Y932260D02*
X571500Y947340D01*
X596900Y947340D02*
X596900Y932260D01*
X622300Y932260D02*
X622300Y947340D01*
X647700Y947340D02*
X647700Y932260D01*
X787400Y932260D02*
X787400Y947340D01*
X812800Y947340D02*
X812800Y932260D01*
X838200Y932260D02*
X838200Y947340D01*
D16*
X1295400Y304800D03*
X1295400Y279908D03*
X1295400Y259842D03*
X1295400Y234696D03*
D17*
X1291971Y204216D02*
X1311021Y204216D01*
X1350264Y260223D02*
X1350264Y279273D01*
X1311021Y335534D02*
X1291971Y335534D01*
D18*
X1306576Y335534D03*
X1296416Y335534D03*
X1350264Y264668D03*
X1350264Y274828D03*
X1306576Y204216D03*
X1296416Y204216D03*
M02*
