M48
;GenerationSoftware,Autodesk,EAGLE,9.6.2*%
;CreationDate,2025-12-19T21:57:53Z*%
FMAT,2
ICI,OFF
METRIC,TZ,000.000
T6C1.000
T5C1.210
T4C1.400
T3C2.500
T2C3.000
T1C3.175
%
G90
M71
T1
X5080Y96520
X132080Y96520
X132080Y5080
X5080Y5080
T2
X106680Y29845
X106680Y86995
X30480Y29845
X30480Y86995
T3
X27860Y20940
X17860Y20940
X119300Y20940
X109300Y20940
T4
X128170Y50760
X128170Y45760
X115670Y45760
X115670Y50760
X21490Y86320
X21490Y81320
X8990Y81320
X8990Y86320
T5
X120650Y66040
X123190Y66040
X120650Y78740
X123190Y78740
X120650Y91440
X123190Y91440
T6
X100330Y7620
X102870Y7620
X105410Y7620
X107950Y7620
X80010Y93980
X77470Y93980
X74930Y93980
X72390Y93980
X69850Y93980
X67310Y93980
X64770Y93980
X62230Y93980
X106680Y34290
X106680Y36830
X106680Y39370
X106680Y41910
X106680Y44450
X106680Y46990
X114300Y27940
X106680Y52070
X106680Y54610
X106680Y57150
X106680Y59690
X106680Y62230
X106680Y64770
X106680Y67310
X106680Y69850
X106680Y72390
X106680Y74930
X106680Y77470
X106680Y80010
X106680Y82550
X30480Y34290
X30480Y36830
X30480Y39370
X30480Y41910
X30480Y44450
X30480Y46990
X30480Y49530
X30480Y52070
X30480Y54610
X30480Y57150
X30480Y59690
X30480Y62230
X30480Y64770
X30480Y67310
X30480Y69850
X30480Y72390
X30480Y74930
X30480Y77470
X30480Y80010
X30480Y82550
X116800Y27940
X20360Y27940
X22860Y27940
X25360Y27940
X43180Y93980
X45720Y93980
X48260Y93980
X67310Y7620
X69850Y7620
X111800Y27940
X106680Y49530
M30