M48
;GenerationSoftware,Autodesk,EAGLE,9.6.2*%
;CreationDate,2025-12-19T21:56:32Z*%
FMAT,2
ICI,OFF
METRIC,TZ,000.000
T5C0.025
T4C0.889
T3C1.000
T2C1.295
T1C3.175
%
G90
M71
T1
X132080Y96520
X5080Y96520
X5080Y5080
X132080Y5080
T2
X130658Y33553
X129642Y33553
X135026Y26467
X135026Y27483
X130658Y20422
X129642Y20422
T3
X83820Y93980
X81280Y93980
X78740Y93980
X64770Y93980
X62230Y93980
X59690Y93980
X57150Y93980
X54610Y93980
X52070Y93980
X49530Y93980
X46990Y93980
X95250Y7620
X92710Y7620
X90170Y7620
X87630Y7620
X69850Y7620
X67310Y7620
T4
X107120Y63780
X104580Y66320
X104580Y63780
X102040Y66320
X102040Y63780
X99500Y66320
X99500Y63780
X96960Y66320
X96960Y63780
X94420Y66320
X94420Y63780
X91880Y66320
X91880Y63780
X89340Y66320
X89340Y63780
X86800Y66320
X86800Y63780
X84260Y66320
X84260Y63780
X127440Y40920
X127440Y38380
X124900Y40920
X124900Y38380
X122360Y40920
X122360Y38380
X119820Y40920
X119820Y38380
X117280Y40920
X117280Y38380
X114740Y40920
X114740Y38380
X112200Y40920
X112200Y38380
X109660Y40920
X109660Y38380
X107120Y40920
X107120Y38380
X104580Y40920
X104580Y38380
X102040Y40920
X102040Y38380
X99500Y40920
X99500Y38380
X96960Y40920
X96960Y38380
X94420Y40920
X94420Y38380
X91880Y40920
X91880Y38380
X89340Y40920
X89340Y38380
X86800Y40920
X86800Y38380
X84260Y40920
X84260Y38380
X107120Y66320
X109660Y63780
X109660Y66320
X112200Y63780
X112200Y66320
X114740Y63780
X114740Y66320
X117280Y63780
X117280Y66320
X119820Y63780
X119820Y66320
X122360Y63780
X122360Y66320
X124900Y63780
X124900Y66320
X127440Y63780
X127440Y66320
X129540Y30480
X129540Y27991
X129540Y25984
X129540Y23470
T5
X130150Y20422
X135026Y26975
X130150Y33553
M30